M48
;DRILL file {KiCad 5.0.0-rc2-dev-unknown-0f0d9af~63~ubuntu16.04.1} date Tue May  8 16:55:28 2018
;FORMAT={-:-/ absolute / inch / decimal}
FMAT,2
INCH,TZ
T1C0.0157
T2C0.0394
T3C0.0400
T4C0.0512
%
G90
G05
M72
T1
X3.4449Y-2.7559
X3.4449Y-2.9528
X3.4449Y-3.1496
X3.7598Y-3.1496
X3.7697Y-3.4646
X3.8009Y-3.1786
X3.8386Y-2.5591
X3.8386Y-3.2087
X3.8681Y-3.5433
X4.0575Y-3.5575
X4.0594Y-3.2669
X4.0703Y-3.5177
X4.1339Y-2.5591
X4.1339Y-2.9528
X4.2323Y-3.5433
X4.3307Y-3.1496
X4.3307Y-3.5433
X4.4291Y-3.1496
X4.5965Y-3.622
X4.626Y-2.5591
X4.626Y-3.1791
X4.6457Y-3.622
X4.6752Y-3.1496
X4.6949Y-3.622
X4.8327Y-3.5433
X4.8425Y-3.3297
X4.8425Y-3.3671
X4.8425Y-3.4035
X4.9213Y-2.9528
X5.0197Y-2.5591
X5.1181Y-2.9528
X5.5118Y-2.5591
X5.5118Y-3.7402
X5.7087Y-2.5591
X5.7087Y-3.7402
X5.9055Y-2.5591
X5.9055Y-3.7402
X6.2008Y-2.8543
X6.2008Y-3.0512
X6.2008Y-3.248
T2
X3.5591Y-3.7598
X3.6591Y-3.7598
X3.7591Y-3.7598
X3.8591Y-3.7598
X3.9591Y-3.7598
X4.0591Y-3.7598
X4.1591Y-3.7598
X4.2591Y-3.7598
X4.3591Y-3.7598
X4.4591Y-3.7598
X4.5591Y-3.7598
X4.6591Y-3.7598
X4.7591Y-3.7598
X4.8591Y-3.7598
X4.9591Y-3.7598
X5.0591Y-3.7598
X4.4094Y-2.9429
X4.5094Y-2.9429
X4.6094Y-2.9429
X4.7094Y-2.9429
T3
X3.778Y-2.8445
X3.778Y-2.9445
X3.878Y-2.8445
X3.878Y-2.9445
X3.978Y-2.8445
X3.978Y-2.9445
T4
X5.5217Y-3.1102
X5.5217Y-3.3071
X5.6713Y-3.2087
T0
M30
