G04 #@! TF.GenerationSoftware,KiCad,Pcbnew,5.0.0-rc2-dev-unknown-0f0d9af~63~ubuntu16.04.1*
G04 #@! TF.CreationDate,2018-05-08T16:55:26+02:00*
G04 #@! TF.ProjectId,display,646973706C61792E6B696361645F7063,rev?*
G04 #@! TF.SameCoordinates,Original*
G04 #@! TF.FileFunction,Soldermask,Top*
G04 #@! TF.FilePolarity,Negative*
%FSLAX46Y46*%
G04 Gerber Fmt 4.6, Leading zero omitted, Abs format (unit mm)*
G04 Created by KiCad (PCBNEW 5.0.0-rc2-dev-unknown-0f0d9af~63~ubuntu16.04.1) date Tue May  8 16:55:26 2018*
%MOMM*%
%LPD*%
G01*
G04 APERTURE LIST*
%ADD10R,2.400000X3.400000*%
%ADD11O,2.400000X3.400000*%
%ADD12R,1.850000X0.850000*%
%ADD13R,1.520000X1.800000*%
%ADD14R,1.860000X2.800000*%
%ADD15R,2.127200X2.127200*%
%ADD16O,2.127200X2.127200*%
%ADD17R,2.100000X2.100000*%
%ADD18O,2.100000X2.100000*%
%ADD19R,0.900000X1.900000*%
%ADD20C,0.100000*%
%ADD21C,1.400000*%
%ADD22R,1.400000X1.900000*%
%ADD23C,6.000000*%
%ADD24R,1.300000X1.200000*%
%ADD25C,2.740000*%
%ADD26R,1.800000X1.520000*%
%ADD27C,2.000000*%
G04 APERTURE END LIST*
D10*
X90400000Y-95500000D03*
D11*
X92940000Y-95500000D03*
X95480000Y-95500000D03*
X98020000Y-95500000D03*
X100560000Y-95500000D03*
X103100000Y-95500000D03*
X105640000Y-95500000D03*
X108180000Y-95500000D03*
X110720000Y-95500000D03*
X113260000Y-95500000D03*
X115800000Y-95500000D03*
X118340000Y-95500000D03*
X120880000Y-95500000D03*
X123420000Y-95500000D03*
X125960000Y-95500000D03*
X128500000Y-95500000D03*
D12*
X105800000Y-82075000D03*
X105800000Y-82725000D03*
X105800000Y-83375000D03*
X105800000Y-84025000D03*
X105800000Y-84675000D03*
X105800000Y-85325000D03*
X105800000Y-85975000D03*
X105800000Y-86625000D03*
X105800000Y-87275000D03*
X105800000Y-87925000D03*
X111700000Y-87925000D03*
X111700000Y-87275000D03*
X111700000Y-86625000D03*
X111700000Y-85975000D03*
X111700000Y-85325000D03*
X111700000Y-84675000D03*
X111700000Y-84025000D03*
X111700000Y-83375000D03*
X111700000Y-82725000D03*
X111700000Y-82075000D03*
D13*
X99870000Y-85750000D03*
X101630000Y-85750000D03*
X90130000Y-90250000D03*
X88370000Y-90250000D03*
X88370000Y-88250000D03*
X90130000Y-88250000D03*
X115620000Y-84750000D03*
X117380000Y-84750000D03*
D14*
X90730000Y-85250000D03*
X87770000Y-85250000D03*
D15*
X95960000Y-74790000D03*
D16*
X95960000Y-72250000D03*
X98500000Y-74790000D03*
X98500000Y-72250000D03*
X101040000Y-74790000D03*
X101040000Y-72250000D03*
D17*
X112000000Y-74750000D03*
D18*
X114540000Y-74750000D03*
X117080000Y-74750000D03*
X119620000Y-74750000D03*
D19*
X135000000Y-88250000D03*
D20*
G36*
X134768613Y-87303371D02*
X134836564Y-87313450D01*
X134903200Y-87330142D01*
X134967879Y-87353284D01*
X135029979Y-87382655D01*
X135088900Y-87417971D01*
X135144076Y-87458893D01*
X135194976Y-87505025D01*
X135241108Y-87555925D01*
X135282030Y-87611101D01*
X135317346Y-87670022D01*
X135346717Y-87732122D01*
X135369859Y-87796801D01*
X135386551Y-87863437D01*
X135396630Y-87931388D01*
X135400001Y-88000000D01*
X135400001Y-88500000D01*
X135396630Y-88568612D01*
X135386551Y-88636563D01*
X135369859Y-88703199D01*
X135346717Y-88767878D01*
X135317346Y-88829978D01*
X135282030Y-88888899D01*
X135241108Y-88944075D01*
X135194976Y-88994975D01*
X135144076Y-89041107D01*
X135088900Y-89082029D01*
X135029979Y-89117345D01*
X134967879Y-89146716D01*
X134903200Y-89169858D01*
X134836564Y-89186550D01*
X134768613Y-89196629D01*
X134700001Y-89200000D01*
X134699999Y-89200000D01*
X134631387Y-89196629D01*
X134563436Y-89186550D01*
X134496800Y-89169858D01*
X134432121Y-89146716D01*
X134370021Y-89117345D01*
X134311100Y-89082029D01*
X134255924Y-89041107D01*
X134205024Y-88994975D01*
X134158892Y-88944075D01*
X134117970Y-88888899D01*
X134082654Y-88829978D01*
X134053283Y-88767878D01*
X134030141Y-88703199D01*
X134013449Y-88636563D01*
X134003370Y-88568612D01*
X133999999Y-88500000D01*
X133999999Y-88000000D01*
X134003370Y-87931388D01*
X134013449Y-87863437D01*
X134030141Y-87796801D01*
X134053283Y-87732122D01*
X134082654Y-87670022D01*
X134117970Y-87611101D01*
X134158892Y-87555925D01*
X134205024Y-87505025D01*
X134255924Y-87458893D01*
X134311100Y-87417971D01*
X134370021Y-87382655D01*
X134432121Y-87353284D01*
X134496800Y-87330142D01*
X134563436Y-87313450D01*
X134631387Y-87303371D01*
X134699999Y-87300000D01*
X134700001Y-87300000D01*
X134768613Y-87303371D01*
X134768613Y-87303371D01*
G37*
D21*
X134700000Y-88250000D03*
D22*
X136000000Y-88250000D03*
D19*
X137000000Y-88250000D03*
D20*
G36*
X137368613Y-87303371D02*
X137436564Y-87313450D01*
X137503200Y-87330142D01*
X137567879Y-87353284D01*
X137629979Y-87382655D01*
X137688900Y-87417971D01*
X137744076Y-87458893D01*
X137794976Y-87505025D01*
X137841108Y-87555925D01*
X137882030Y-87611101D01*
X137917346Y-87670022D01*
X137946717Y-87732122D01*
X137969859Y-87796801D01*
X137986551Y-87863437D01*
X137996630Y-87931388D01*
X138000001Y-88000000D01*
X138000001Y-88500000D01*
X137996630Y-88568612D01*
X137986551Y-88636563D01*
X137969859Y-88703199D01*
X137946717Y-88767878D01*
X137917346Y-88829978D01*
X137882030Y-88888899D01*
X137841108Y-88944075D01*
X137794976Y-88994975D01*
X137744076Y-89041107D01*
X137688900Y-89082029D01*
X137629979Y-89117345D01*
X137567879Y-89146716D01*
X137503200Y-89169858D01*
X137436564Y-89186550D01*
X137368613Y-89196629D01*
X137300001Y-89200000D01*
X137299999Y-89200000D01*
X137231387Y-89196629D01*
X137163436Y-89186550D01*
X137096800Y-89169858D01*
X137032121Y-89146716D01*
X136970021Y-89117345D01*
X136911100Y-89082029D01*
X136855924Y-89041107D01*
X136805024Y-88994975D01*
X136758892Y-88944075D01*
X136717970Y-88888899D01*
X136682654Y-88829978D01*
X136653283Y-88767878D01*
X136630141Y-88703199D01*
X136613449Y-88636563D01*
X136603370Y-88568612D01*
X136599999Y-88500000D01*
X136599999Y-88000000D01*
X136603370Y-87931388D01*
X136613449Y-87863437D01*
X136630141Y-87796801D01*
X136653283Y-87732122D01*
X136682654Y-87670022D01*
X136717970Y-87611101D01*
X136758892Y-87555925D01*
X136805024Y-87505025D01*
X136855924Y-87458893D01*
X136911100Y-87417971D01*
X136970021Y-87382655D01*
X137032121Y-87353284D01*
X137096800Y-87330142D01*
X137163436Y-87313450D01*
X137231387Y-87303371D01*
X137299999Y-87300000D01*
X137300001Y-87300000D01*
X137368613Y-87303371D01*
X137368613Y-87303371D01*
G37*
D21*
X137300000Y-88250000D03*
D20*
G36*
X124768613Y-87303371D02*
X124836564Y-87313450D01*
X124903200Y-87330142D01*
X124967879Y-87353284D01*
X125029979Y-87382655D01*
X125088900Y-87417971D01*
X125144076Y-87458893D01*
X125194976Y-87505025D01*
X125241108Y-87555925D01*
X125282030Y-87611101D01*
X125317346Y-87670022D01*
X125346717Y-87732122D01*
X125369859Y-87796801D01*
X125386551Y-87863437D01*
X125396630Y-87931388D01*
X125400001Y-88000000D01*
X125400001Y-88500000D01*
X125396630Y-88568612D01*
X125386551Y-88636563D01*
X125369859Y-88703199D01*
X125346717Y-88767878D01*
X125317346Y-88829978D01*
X125282030Y-88888899D01*
X125241108Y-88944075D01*
X125194976Y-88994975D01*
X125144076Y-89041107D01*
X125088900Y-89082029D01*
X125029979Y-89117345D01*
X124967879Y-89146716D01*
X124903200Y-89169858D01*
X124836564Y-89186550D01*
X124768613Y-89196629D01*
X124700001Y-89200000D01*
X124699999Y-89200000D01*
X124631387Y-89196629D01*
X124563436Y-89186550D01*
X124496800Y-89169858D01*
X124432121Y-89146716D01*
X124370021Y-89117345D01*
X124311100Y-89082029D01*
X124255924Y-89041107D01*
X124205024Y-88994975D01*
X124158892Y-88944075D01*
X124117970Y-88888899D01*
X124082654Y-88829978D01*
X124053283Y-88767878D01*
X124030141Y-88703199D01*
X124013449Y-88636563D01*
X124003370Y-88568612D01*
X123999999Y-88500000D01*
X123999999Y-88000000D01*
X124003370Y-87931388D01*
X124013449Y-87863437D01*
X124030141Y-87796801D01*
X124053283Y-87732122D01*
X124082654Y-87670022D01*
X124117970Y-87611101D01*
X124158892Y-87555925D01*
X124205024Y-87505025D01*
X124255924Y-87458893D01*
X124311100Y-87417971D01*
X124370021Y-87382655D01*
X124432121Y-87353284D01*
X124496800Y-87330142D01*
X124563436Y-87313450D01*
X124631387Y-87303371D01*
X124699999Y-87300000D01*
X124700001Y-87300000D01*
X124768613Y-87303371D01*
X124768613Y-87303371D01*
G37*
D21*
X124700000Y-88250000D03*
D19*
X125000000Y-88250000D03*
D22*
X126000000Y-88250000D03*
D20*
G36*
X127368613Y-87303371D02*
X127436564Y-87313450D01*
X127503200Y-87330142D01*
X127567879Y-87353284D01*
X127629979Y-87382655D01*
X127688900Y-87417971D01*
X127744076Y-87458893D01*
X127794976Y-87505025D01*
X127841108Y-87555925D01*
X127882030Y-87611101D01*
X127917346Y-87670022D01*
X127946717Y-87732122D01*
X127969859Y-87796801D01*
X127986551Y-87863437D01*
X127996630Y-87931388D01*
X128000001Y-88000000D01*
X128000001Y-88500000D01*
X127996630Y-88568612D01*
X127986551Y-88636563D01*
X127969859Y-88703199D01*
X127946717Y-88767878D01*
X127917346Y-88829978D01*
X127882030Y-88888899D01*
X127841108Y-88944075D01*
X127794976Y-88994975D01*
X127744076Y-89041107D01*
X127688900Y-89082029D01*
X127629979Y-89117345D01*
X127567879Y-89146716D01*
X127503200Y-89169858D01*
X127436564Y-89186550D01*
X127368613Y-89196629D01*
X127300001Y-89200000D01*
X127299999Y-89200000D01*
X127231387Y-89196629D01*
X127163436Y-89186550D01*
X127096800Y-89169858D01*
X127032121Y-89146716D01*
X126970021Y-89117345D01*
X126911100Y-89082029D01*
X126855924Y-89041107D01*
X126805024Y-88994975D01*
X126758892Y-88944075D01*
X126717970Y-88888899D01*
X126682654Y-88829978D01*
X126653283Y-88767878D01*
X126630141Y-88703199D01*
X126613449Y-88636563D01*
X126603370Y-88568612D01*
X126599999Y-88500000D01*
X126599999Y-88000000D01*
X126603370Y-87931388D01*
X126613449Y-87863437D01*
X126630141Y-87796801D01*
X126653283Y-87732122D01*
X126682654Y-87670022D01*
X126717970Y-87611101D01*
X126758892Y-87555925D01*
X126805024Y-87505025D01*
X126855924Y-87458893D01*
X126911100Y-87417971D01*
X126970021Y-87382655D01*
X127032121Y-87353284D01*
X127096800Y-87330142D01*
X127163436Y-87313450D01*
X127231387Y-87303371D01*
X127299999Y-87300000D01*
X127300001Y-87300000D01*
X127368613Y-87303371D01*
X127368613Y-87303371D01*
G37*
D21*
X127300000Y-88250000D03*
D19*
X127000000Y-88250000D03*
D23*
X85000000Y-64000000D03*
X160000000Y-64000000D03*
X160000000Y-95000000D03*
X85000000Y-95000000D03*
D24*
X117250000Y-88050000D03*
X117250000Y-89950000D03*
X119250000Y-89000000D03*
D25*
X140250000Y-84000000D03*
X144050000Y-81500000D03*
X140250000Y-79000000D03*
D26*
X136000000Y-83370000D03*
X136000000Y-85130000D03*
D13*
X101630000Y-83750000D03*
X99870000Y-83750000D03*
D26*
X136000000Y-78120000D03*
X136000000Y-79880000D03*
D27*
X156000000Y-68000000D03*
X156000000Y-91000000D03*
X90000000Y-68000000D03*
M02*
