G04 #@! TF.GenerationSoftware,KiCad,Pcbnew,5.0.0-rc2-dev-unknown-0f0d9af~63~ubuntu16.04.1*
G04 #@! TF.CreationDate,2018-05-08T16:55:26+02:00*
G04 #@! TF.ProjectId,display,646973706C61792E6B696361645F7063,rev?*
G04 #@! TF.SameCoordinates,Original*
G04 #@! TF.FileFunction,Copper,L1,Top,Signal*
G04 #@! TF.FilePolarity,Positive*
%FSLAX46Y46*%
G04 Gerber Fmt 4.6, Leading zero omitted, Abs format (unit mm)*
G04 Created by KiCad (PCBNEW 5.0.0-rc2-dev-unknown-0f0d9af~63~ubuntu16.04.1) date Tue May  8 16:55:26 2018*
%MOMM*%
%LPD*%
G01*
G04 APERTURE LIST*
%ADD10R,2.000000X3.000000*%
%ADD11O,2.000000X3.000000*%
%ADD12R,1.450000X0.450000*%
%ADD13R,1.120000X1.400000*%
%ADD14R,1.460000X2.400000*%
%ADD15R,1.727200X1.727200*%
%ADD16O,1.727200X1.727200*%
%ADD17R,1.700000X1.700000*%
%ADD18O,1.700000X1.700000*%
%ADD19R,0.500000X1.500000*%
%ADD20C,0.100000*%
%ADD21C,1.000000*%
%ADD22R,1.000000X1.500000*%
%ADD23R,0.900000X0.800000*%
%ADD24C,2.340000*%
%ADD25R,1.400000X1.120000*%
%ADD26C,0.800000*%
%ADD27C,1.000000*%
%ADD28C,0.800000*%
%ADD29C,0.250000*%
%ADD30C,0.500000*%
%ADD31C,0.254000*%
G04 APERTURE END LIST*
D10*
X90400000Y-95500000D03*
D11*
X92940000Y-95500000D03*
X95480000Y-95500000D03*
X98020000Y-95500000D03*
X100560000Y-95500000D03*
X103100000Y-95500000D03*
X105640000Y-95500000D03*
X108180000Y-95500000D03*
X110720000Y-95500000D03*
X113260000Y-95500000D03*
X115800000Y-95500000D03*
X118340000Y-95500000D03*
X120880000Y-95500000D03*
X123420000Y-95500000D03*
X125960000Y-95500000D03*
X128500000Y-95500000D03*
D12*
X105800000Y-82075000D03*
X105800000Y-82725000D03*
X105800000Y-83375000D03*
X105800000Y-84025000D03*
X105800000Y-84675000D03*
X105800000Y-85325000D03*
X105800000Y-85975000D03*
X105800000Y-86625000D03*
X105800000Y-87275000D03*
X105800000Y-87925000D03*
X111700000Y-87925000D03*
X111700000Y-87275000D03*
X111700000Y-86625000D03*
X111700000Y-85975000D03*
X111700000Y-85325000D03*
X111700000Y-84675000D03*
X111700000Y-84025000D03*
X111700000Y-83375000D03*
X111700000Y-82725000D03*
X111700000Y-82075000D03*
D13*
X99870000Y-85750000D03*
X101630000Y-85750000D03*
X90130000Y-90250000D03*
X88370000Y-90250000D03*
X88370000Y-88250000D03*
X90130000Y-88250000D03*
X115620000Y-84750000D03*
X117380000Y-84750000D03*
D14*
X90730000Y-85250000D03*
X87770000Y-85250000D03*
D15*
X95960000Y-74790000D03*
D16*
X95960000Y-72250000D03*
X98500000Y-74790000D03*
X98500000Y-72250000D03*
X101040000Y-74790000D03*
X101040000Y-72250000D03*
D17*
X112000000Y-74750000D03*
D18*
X114540000Y-74750000D03*
X117080000Y-74750000D03*
X119620000Y-74750000D03*
D19*
X135000000Y-88250000D03*
D20*
G36*
X134749010Y-87502408D02*
X134797546Y-87509607D01*
X134845143Y-87521530D01*
X134891343Y-87538060D01*
X134935699Y-87559039D01*
X134977786Y-87584265D01*
X135017198Y-87613495D01*
X135053554Y-87646447D01*
X135086506Y-87682803D01*
X135115736Y-87722215D01*
X135140962Y-87764302D01*
X135161941Y-87808658D01*
X135178471Y-87854858D01*
X135190394Y-87902455D01*
X135197593Y-87950991D01*
X135200001Y-88000000D01*
X135200001Y-88500000D01*
X135197593Y-88549009D01*
X135190394Y-88597545D01*
X135178471Y-88645142D01*
X135161941Y-88691342D01*
X135140962Y-88735698D01*
X135115736Y-88777785D01*
X135086506Y-88817197D01*
X135053554Y-88853553D01*
X135017198Y-88886505D01*
X134977786Y-88915735D01*
X134935699Y-88940961D01*
X134891343Y-88961940D01*
X134845143Y-88978470D01*
X134797546Y-88990393D01*
X134749010Y-88997592D01*
X134700001Y-89000000D01*
X134699999Y-89000000D01*
X134650990Y-88997592D01*
X134602454Y-88990393D01*
X134554857Y-88978470D01*
X134508657Y-88961940D01*
X134464301Y-88940961D01*
X134422214Y-88915735D01*
X134382802Y-88886505D01*
X134346446Y-88853553D01*
X134313494Y-88817197D01*
X134284264Y-88777785D01*
X134259038Y-88735698D01*
X134238059Y-88691342D01*
X134221529Y-88645142D01*
X134209606Y-88597545D01*
X134202407Y-88549009D01*
X134199999Y-88500000D01*
X134199999Y-88000000D01*
X134202407Y-87950991D01*
X134209606Y-87902455D01*
X134221529Y-87854858D01*
X134238059Y-87808658D01*
X134259038Y-87764302D01*
X134284264Y-87722215D01*
X134313494Y-87682803D01*
X134346446Y-87646447D01*
X134382802Y-87613495D01*
X134422214Y-87584265D01*
X134464301Y-87559039D01*
X134508657Y-87538060D01*
X134554857Y-87521530D01*
X134602454Y-87509607D01*
X134650990Y-87502408D01*
X134699999Y-87500000D01*
X134700001Y-87500000D01*
X134749010Y-87502408D01*
X134749010Y-87502408D01*
G37*
D21*
X134700000Y-88250000D03*
D22*
X136000000Y-88250000D03*
D19*
X137000000Y-88250000D03*
D20*
G36*
X137349010Y-87502408D02*
X137397546Y-87509607D01*
X137445143Y-87521530D01*
X137491343Y-87538060D01*
X137535699Y-87559039D01*
X137577786Y-87584265D01*
X137617198Y-87613495D01*
X137653554Y-87646447D01*
X137686506Y-87682803D01*
X137715736Y-87722215D01*
X137740962Y-87764302D01*
X137761941Y-87808658D01*
X137778471Y-87854858D01*
X137790394Y-87902455D01*
X137797593Y-87950991D01*
X137800001Y-88000000D01*
X137800001Y-88500000D01*
X137797593Y-88549009D01*
X137790394Y-88597545D01*
X137778471Y-88645142D01*
X137761941Y-88691342D01*
X137740962Y-88735698D01*
X137715736Y-88777785D01*
X137686506Y-88817197D01*
X137653554Y-88853553D01*
X137617198Y-88886505D01*
X137577786Y-88915735D01*
X137535699Y-88940961D01*
X137491343Y-88961940D01*
X137445143Y-88978470D01*
X137397546Y-88990393D01*
X137349010Y-88997592D01*
X137300001Y-89000000D01*
X137299999Y-89000000D01*
X137250990Y-88997592D01*
X137202454Y-88990393D01*
X137154857Y-88978470D01*
X137108657Y-88961940D01*
X137064301Y-88940961D01*
X137022214Y-88915735D01*
X136982802Y-88886505D01*
X136946446Y-88853553D01*
X136913494Y-88817197D01*
X136884264Y-88777785D01*
X136859038Y-88735698D01*
X136838059Y-88691342D01*
X136821529Y-88645142D01*
X136809606Y-88597545D01*
X136802407Y-88549009D01*
X136799999Y-88500000D01*
X136799999Y-88000000D01*
X136802407Y-87950991D01*
X136809606Y-87902455D01*
X136821529Y-87854858D01*
X136838059Y-87808658D01*
X136859038Y-87764302D01*
X136884264Y-87722215D01*
X136913494Y-87682803D01*
X136946446Y-87646447D01*
X136982802Y-87613495D01*
X137022214Y-87584265D01*
X137064301Y-87559039D01*
X137108657Y-87538060D01*
X137154857Y-87521530D01*
X137202454Y-87509607D01*
X137250990Y-87502408D01*
X137299999Y-87500000D01*
X137300001Y-87500000D01*
X137349010Y-87502408D01*
X137349010Y-87502408D01*
G37*
D21*
X137300000Y-88250000D03*
D20*
G36*
X124749010Y-87502408D02*
X124797546Y-87509607D01*
X124845143Y-87521530D01*
X124891343Y-87538060D01*
X124935699Y-87559039D01*
X124977786Y-87584265D01*
X125017198Y-87613495D01*
X125053554Y-87646447D01*
X125086506Y-87682803D01*
X125115736Y-87722215D01*
X125140962Y-87764302D01*
X125161941Y-87808658D01*
X125178471Y-87854858D01*
X125190394Y-87902455D01*
X125197593Y-87950991D01*
X125200001Y-88000000D01*
X125200001Y-88500000D01*
X125197593Y-88549009D01*
X125190394Y-88597545D01*
X125178471Y-88645142D01*
X125161941Y-88691342D01*
X125140962Y-88735698D01*
X125115736Y-88777785D01*
X125086506Y-88817197D01*
X125053554Y-88853553D01*
X125017198Y-88886505D01*
X124977786Y-88915735D01*
X124935699Y-88940961D01*
X124891343Y-88961940D01*
X124845143Y-88978470D01*
X124797546Y-88990393D01*
X124749010Y-88997592D01*
X124700001Y-89000000D01*
X124699999Y-89000000D01*
X124650990Y-88997592D01*
X124602454Y-88990393D01*
X124554857Y-88978470D01*
X124508657Y-88961940D01*
X124464301Y-88940961D01*
X124422214Y-88915735D01*
X124382802Y-88886505D01*
X124346446Y-88853553D01*
X124313494Y-88817197D01*
X124284264Y-88777785D01*
X124259038Y-88735698D01*
X124238059Y-88691342D01*
X124221529Y-88645142D01*
X124209606Y-88597545D01*
X124202407Y-88549009D01*
X124199999Y-88500000D01*
X124199999Y-88000000D01*
X124202407Y-87950991D01*
X124209606Y-87902455D01*
X124221529Y-87854858D01*
X124238059Y-87808658D01*
X124259038Y-87764302D01*
X124284264Y-87722215D01*
X124313494Y-87682803D01*
X124346446Y-87646447D01*
X124382802Y-87613495D01*
X124422214Y-87584265D01*
X124464301Y-87559039D01*
X124508657Y-87538060D01*
X124554857Y-87521530D01*
X124602454Y-87509607D01*
X124650990Y-87502408D01*
X124699999Y-87500000D01*
X124700001Y-87500000D01*
X124749010Y-87502408D01*
X124749010Y-87502408D01*
G37*
D21*
X124700000Y-88250000D03*
D19*
X125000000Y-88250000D03*
D22*
X126000000Y-88250000D03*
D20*
G36*
X127349010Y-87502408D02*
X127397546Y-87509607D01*
X127445143Y-87521530D01*
X127491343Y-87538060D01*
X127535699Y-87559039D01*
X127577786Y-87584265D01*
X127617198Y-87613495D01*
X127653554Y-87646447D01*
X127686506Y-87682803D01*
X127715736Y-87722215D01*
X127740962Y-87764302D01*
X127761941Y-87808658D01*
X127778471Y-87854858D01*
X127790394Y-87902455D01*
X127797593Y-87950991D01*
X127800001Y-88000000D01*
X127800001Y-88500000D01*
X127797593Y-88549009D01*
X127790394Y-88597545D01*
X127778471Y-88645142D01*
X127761941Y-88691342D01*
X127740962Y-88735698D01*
X127715736Y-88777785D01*
X127686506Y-88817197D01*
X127653554Y-88853553D01*
X127617198Y-88886505D01*
X127577786Y-88915735D01*
X127535699Y-88940961D01*
X127491343Y-88961940D01*
X127445143Y-88978470D01*
X127397546Y-88990393D01*
X127349010Y-88997592D01*
X127300001Y-89000000D01*
X127299999Y-89000000D01*
X127250990Y-88997592D01*
X127202454Y-88990393D01*
X127154857Y-88978470D01*
X127108657Y-88961940D01*
X127064301Y-88940961D01*
X127022214Y-88915735D01*
X126982802Y-88886505D01*
X126946446Y-88853553D01*
X126913494Y-88817197D01*
X126884264Y-88777785D01*
X126859038Y-88735698D01*
X126838059Y-88691342D01*
X126821529Y-88645142D01*
X126809606Y-88597545D01*
X126802407Y-88549009D01*
X126799999Y-88500000D01*
X126799999Y-88000000D01*
X126802407Y-87950991D01*
X126809606Y-87902455D01*
X126821529Y-87854858D01*
X126838059Y-87808658D01*
X126859038Y-87764302D01*
X126884264Y-87722215D01*
X126913494Y-87682803D01*
X126946446Y-87646447D01*
X126982802Y-87613495D01*
X127022214Y-87584265D01*
X127064301Y-87559039D01*
X127108657Y-87538060D01*
X127154857Y-87521530D01*
X127202454Y-87509607D01*
X127250990Y-87502408D01*
X127299999Y-87500000D01*
X127300001Y-87500000D01*
X127349010Y-87502408D01*
X127349010Y-87502408D01*
G37*
D21*
X127300000Y-88250000D03*
D19*
X127000000Y-88250000D03*
D23*
X117250000Y-88050000D03*
X117250000Y-89950000D03*
X119250000Y-89000000D03*
D24*
X140250000Y-84000000D03*
X144050000Y-81500000D03*
X140250000Y-79000000D03*
D25*
X136000000Y-83370000D03*
X136000000Y-85130000D03*
D13*
X101630000Y-83750000D03*
X99870000Y-83750000D03*
D25*
X136000000Y-78120000D03*
X136000000Y-79880000D03*
D21*
X156000000Y-68000000D03*
X156000000Y-91000000D03*
X90000000Y-68000000D03*
D26*
X123000000Y-84575000D03*
X123000000Y-85524996D03*
X123000000Y-86450000D03*
X103110000Y-82980000D03*
X157500000Y-82500000D03*
X157500000Y-77500000D03*
X157500000Y-72500000D03*
X97500000Y-65000000D03*
X105000000Y-65000000D03*
X117500000Y-65000000D03*
X127500000Y-65000000D03*
X87500000Y-80000000D03*
X87500000Y-75000000D03*
X87500000Y-70000000D03*
X119250000Y-92000000D03*
X116750000Y-92000000D03*
X118000000Y-92000000D03*
X98250000Y-90000000D03*
X95750000Y-88000000D03*
X112500000Y-80000000D03*
X107500000Y-90000000D03*
X110000000Y-80000000D03*
X110000000Y-90000000D03*
X105000000Y-75000000D03*
X125000000Y-75000000D03*
X130000000Y-75000000D03*
X140000000Y-95000000D03*
X145000000Y-95000000D03*
X150000000Y-95000000D03*
X140000000Y-65000000D03*
X145000000Y-65000000D03*
X150000000Y-65000000D03*
X122750000Y-90000000D03*
X95499988Y-80000000D03*
X96542946Y-80736773D03*
X97500000Y-81500000D03*
X117500002Y-80750000D03*
X118750000Y-80000000D03*
X103060051Y-90361396D03*
X103384991Y-89349863D03*
D27*
X95960000Y-74790000D02*
X95910000Y-74790000D01*
X95910000Y-74790000D02*
X92940000Y-77760000D01*
X92940000Y-77760000D02*
X92940000Y-83750000D01*
D28*
X115620000Y-84750000D02*
X115620000Y-83480000D01*
X115620000Y-83480000D02*
X117100000Y-82000000D01*
X117100000Y-82000000D02*
X131500000Y-82000000D01*
D27*
X131500000Y-82000000D02*
X131500000Y-79500000D01*
X131500000Y-82500000D02*
X131500000Y-82000000D01*
X130000000Y-67250000D02*
X136000000Y-73250000D01*
X98750000Y-67250000D02*
X130000000Y-67250000D01*
X95960000Y-70040000D02*
X98750000Y-67250000D01*
X95960000Y-72250000D02*
X95960000Y-70040000D01*
X136000000Y-73250000D02*
X136000000Y-78120000D01*
D28*
X129250000Y-88250000D02*
X131500000Y-86000000D01*
X131500000Y-86000000D02*
X131500000Y-82500000D01*
X127300000Y-88250000D02*
X129250000Y-88250000D01*
D29*
X101630000Y-85750000D02*
X103250000Y-85750000D01*
X103250000Y-85750000D02*
X104325000Y-84675000D01*
X104325000Y-84675000D02*
X105800000Y-84675000D01*
D27*
X92940000Y-83750000D02*
X99870000Y-83750000D01*
D29*
X101630000Y-85750000D02*
X101630000Y-85610000D01*
X101630000Y-85610000D02*
X99870000Y-83850000D01*
X99870000Y-83850000D02*
X99870000Y-83750000D01*
X111700000Y-84675000D02*
X115545000Y-84675000D01*
X115545000Y-84675000D02*
X115620000Y-84750000D01*
D27*
X136000000Y-78120000D02*
X139370000Y-78120000D01*
X139370000Y-78120000D02*
X140250000Y-79000000D01*
X131500000Y-79500000D02*
X132880000Y-78120000D01*
X132880000Y-78120000D02*
X136000000Y-78120000D01*
X92940000Y-83750000D02*
X92940000Y-85250000D01*
X92940000Y-90250000D02*
X92940000Y-93000000D01*
X92940000Y-90250000D02*
X90130000Y-90250000D01*
X92940000Y-88250000D02*
X92940000Y-90250000D01*
X92940000Y-85250000D02*
X92940000Y-88250000D01*
X92940000Y-88250000D02*
X90130000Y-88250000D01*
X92940000Y-85250000D02*
X90730000Y-85250000D01*
X92940000Y-93000000D02*
X92940000Y-95500000D01*
X95960000Y-72250000D02*
X95960000Y-74790000D01*
D28*
X123000000Y-86450000D02*
X123000000Y-84575000D01*
X123000000Y-85524996D02*
X123000000Y-84575000D01*
X123000000Y-86550000D02*
X123000000Y-86450000D01*
X124700000Y-88250000D02*
X123000000Y-86550000D01*
D27*
X136000000Y-81500000D02*
X136000000Y-79880000D01*
X136000000Y-83370000D02*
X136000000Y-81500000D01*
X136000000Y-81500000D02*
X144050000Y-81500000D01*
D29*
X107250000Y-83550000D02*
X107250000Y-79750000D01*
X114540000Y-76960000D02*
X114540000Y-74750000D01*
X106775000Y-84025000D02*
X107250000Y-83550000D01*
X107250000Y-79750000D02*
X109100000Y-77900000D01*
X105800000Y-84025000D02*
X106775000Y-84025000D01*
X109100000Y-77900000D02*
X113600000Y-77900000D01*
X113600000Y-77900000D02*
X114540000Y-76960000D01*
X101905000Y-84025000D02*
X104825000Y-84025000D01*
X104825000Y-84025000D02*
X105800000Y-84025000D01*
X101630000Y-83750000D02*
X101905000Y-84025000D01*
D28*
X136000000Y-88250000D02*
X136000000Y-85130000D01*
D27*
X136000000Y-85130000D02*
X139120000Y-85130000D01*
X139120000Y-85130000D02*
X140250000Y-84000000D01*
D29*
X111700000Y-85975000D02*
X112975000Y-85975000D01*
X115050000Y-88050000D02*
X117250000Y-88050000D01*
X112975000Y-85975000D02*
X115050000Y-88050000D01*
X111700000Y-85325000D02*
X113575000Y-85325000D01*
X113575000Y-85325000D02*
X114000000Y-85750000D01*
X111700000Y-85325000D02*
X110075000Y-85325000D01*
D30*
X119250000Y-89000000D02*
X121750000Y-89000000D01*
X121750000Y-89000000D02*
X122750000Y-90000000D01*
D29*
X96910000Y-80000000D02*
X96065673Y-80000000D01*
X98390000Y-80570000D02*
X98110000Y-80290000D01*
X97200000Y-80290000D02*
X96910000Y-80000000D01*
X98110000Y-80290000D02*
X97200000Y-80290000D01*
X103470000Y-80570000D02*
X98390000Y-80570000D01*
X104975000Y-82075000D02*
X103470000Y-80570000D01*
X105800000Y-82075000D02*
X104975000Y-82075000D01*
X96065673Y-80000000D02*
X95499988Y-80000000D01*
X97121846Y-80749988D02*
X97108631Y-80736773D01*
X103256421Y-81020011D02*
X98203600Y-81020011D01*
X104961410Y-82725000D02*
X103256421Y-81020011D01*
X98203600Y-81020011D02*
X97933578Y-80749988D01*
X97108631Y-80736773D02*
X96542946Y-80736773D01*
X97933578Y-80749988D02*
X97121846Y-80749988D01*
X105800000Y-82725000D02*
X104961410Y-82725000D01*
X104975000Y-83375000D02*
X103100000Y-81500000D01*
X105800000Y-83375000D02*
X104975000Y-83375000D01*
X103100000Y-81500000D02*
X98065685Y-81500000D01*
X98065685Y-81500000D02*
X97500000Y-81500000D01*
X101600000Y-90700000D02*
X102500000Y-91600000D01*
X105800000Y-85325000D02*
X104825000Y-85325000D01*
X104825000Y-85325000D02*
X101600000Y-88550000D01*
X101600000Y-88550000D02*
X101600000Y-90700000D01*
X102500000Y-91600000D02*
X104000000Y-91600000D01*
X104000000Y-91600000D02*
X105640000Y-93240000D01*
X105640000Y-93240000D02*
X105640000Y-95500000D01*
X102100000Y-90463590D02*
X102736410Y-91100000D01*
X102736410Y-91100000D02*
X104280000Y-91100000D01*
X108180000Y-95000000D02*
X108180000Y-95500000D01*
X102100000Y-88700000D02*
X102100000Y-90463590D01*
X104280000Y-91100000D02*
X108180000Y-95000000D01*
X104825000Y-85975000D02*
X102100000Y-88700000D01*
X105800000Y-85975000D02*
X104825000Y-85975000D01*
X105800000Y-90580000D02*
X110720000Y-95500000D01*
X105800000Y-87925000D02*
X105800000Y-90580000D01*
X112925000Y-87925000D02*
X111700000Y-87925000D01*
X113260000Y-88260000D02*
X112925000Y-87925000D01*
X113260000Y-95500000D02*
X113260000Y-88260000D01*
X114150000Y-93480000D02*
X113750000Y-93080000D01*
X115800000Y-93750000D02*
X115530000Y-93480000D01*
X112911411Y-87275000D02*
X111700000Y-87275000D01*
X115530000Y-93480000D02*
X114150000Y-93480000D01*
X113750000Y-88113589D02*
X112911411Y-87275000D01*
X115800000Y-95500000D02*
X115800000Y-93750000D01*
X113750000Y-93080000D02*
X113750000Y-88113589D01*
X116350000Y-93600000D02*
X115770000Y-93020000D01*
X115770000Y-93020000D02*
X114560000Y-93020000D01*
X118100000Y-93600000D02*
X116350000Y-93600000D01*
X118340000Y-93840000D02*
X118100000Y-93600000D01*
X118340000Y-95500000D02*
X118340000Y-93840000D01*
X114250000Y-92710000D02*
X114250000Y-87977178D01*
X112675000Y-86625000D02*
X111700000Y-86625000D01*
X114560000Y-93020000D02*
X114250000Y-92710000D01*
X114250000Y-87977178D02*
X112897822Y-86625000D01*
X112897822Y-86625000D02*
X112675000Y-86625000D01*
X111700000Y-84025000D02*
X113625000Y-84025000D01*
X113625000Y-84025000D02*
X116950000Y-80700000D01*
X116950000Y-80700000D02*
X117450002Y-80700000D01*
X117450002Y-80700000D02*
X117500002Y-80750000D01*
X118184315Y-80000000D02*
X118750000Y-80000000D01*
X116972821Y-80000000D02*
X118184315Y-80000000D01*
X111700000Y-83375000D02*
X113597821Y-83375000D01*
X113597821Y-83375000D02*
X116972821Y-80000000D01*
X111700000Y-82725000D02*
X113611411Y-82725000D01*
X113611411Y-82725000D02*
X117600000Y-78736411D01*
X117600000Y-78736411D02*
X117600000Y-76770000D01*
X117600000Y-76770000D02*
X119620000Y-74750000D01*
X113625000Y-82075000D02*
X117080000Y-78620000D01*
X111700000Y-82075000D02*
X113625000Y-82075000D01*
X117080000Y-78620000D02*
X117080000Y-75952081D01*
X117080000Y-75952081D02*
X117080000Y-74750000D01*
D28*
X125960000Y-91000000D02*
X129900000Y-91000000D01*
X129900000Y-91000000D02*
X132650000Y-88250000D01*
X132650000Y-88250000D02*
X134700000Y-88250000D01*
X125960000Y-91000000D02*
X125960000Y-88290000D01*
X125960000Y-95500000D02*
X125960000Y-91000000D01*
X125960000Y-88290000D02*
X126000000Y-88250000D01*
D29*
X105800000Y-86625000D02*
X104825000Y-86625000D01*
X102660052Y-89961397D02*
X103060051Y-90361396D01*
X102550011Y-88899989D02*
X102550011Y-89851356D01*
X102550011Y-89851356D02*
X102660052Y-89961397D01*
X104825000Y-86625000D02*
X102550011Y-88899989D01*
X103384991Y-88715009D02*
X103384991Y-88784178D01*
X103384991Y-88784178D02*
X103384991Y-89349863D01*
X105800000Y-87275000D02*
X104825000Y-87275000D01*
X104825000Y-87275000D02*
X103384991Y-88715009D01*
D31*
G36*
X157349057Y-62228697D02*
X156873000Y-63378001D01*
X156873000Y-64621999D01*
X157349057Y-65771303D01*
X158228697Y-66650943D01*
X159378001Y-67127000D01*
X160621999Y-67127000D01*
X161771303Y-66650943D01*
X162290001Y-66132245D01*
X162290000Y-92867754D01*
X161771303Y-92349057D01*
X160621999Y-91873000D01*
X159378001Y-91873000D01*
X158228697Y-92349057D01*
X157349057Y-93228697D01*
X156873000Y-94378001D01*
X156873000Y-95621999D01*
X157349057Y-96771303D01*
X157867754Y-97290000D01*
X129512300Y-97290000D01*
X129678769Y-97178769D01*
X130040136Y-96637945D01*
X130135000Y-96161031D01*
X130135000Y-94838969D01*
X130040136Y-94362055D01*
X129678769Y-93821231D01*
X129137944Y-93459864D01*
X128500000Y-93332969D01*
X127862055Y-93459864D01*
X127321231Y-93821231D01*
X127230000Y-93957768D01*
X127138769Y-93821231D01*
X126995000Y-93725168D01*
X126995000Y-92035000D01*
X129798066Y-92035000D01*
X129900000Y-92055276D01*
X130001934Y-92035000D01*
X130001935Y-92035000D01*
X130303837Y-91974948D01*
X130646193Y-91746193D01*
X130703937Y-91659773D01*
X131589476Y-90774234D01*
X154865000Y-90774234D01*
X154865000Y-91225766D01*
X155037793Y-91642926D01*
X155357074Y-91962207D01*
X155774234Y-92135000D01*
X156225766Y-92135000D01*
X156642926Y-91962207D01*
X156962207Y-91642926D01*
X157135000Y-91225766D01*
X157135000Y-90774234D01*
X156962207Y-90357074D01*
X156642926Y-90037793D01*
X156225766Y-89865000D01*
X155774234Y-89865000D01*
X155357074Y-90037793D01*
X155037793Y-90357074D01*
X154865000Y-90774234D01*
X131589476Y-90774234D01*
X133078711Y-89285000D01*
X133871021Y-89285000D01*
X133888636Y-89311363D01*
X134260893Y-89560096D01*
X134699999Y-89647440D01*
X134700001Y-89647440D01*
X134725000Y-89642467D01*
X134750000Y-89647440D01*
X135250000Y-89647440D01*
X135375000Y-89622576D01*
X135500000Y-89647440D01*
X136500000Y-89647440D01*
X136603853Y-89626783D01*
X136623691Y-89635000D01*
X137014250Y-89635000D01*
X137149000Y-89500250D01*
X137283750Y-89635000D01*
X137376309Y-89635000D01*
X137524406Y-89573656D01*
X137585750Y-89635000D01*
X137926309Y-89635000D01*
X138159698Y-89538327D01*
X138338327Y-89359699D01*
X138435000Y-89126310D01*
X138435000Y-88535750D01*
X138276250Y-88377000D01*
X137153000Y-88377000D01*
X137153000Y-88123000D01*
X138276250Y-88123000D01*
X138435000Y-87964250D01*
X138435000Y-87373690D01*
X138338327Y-87140301D01*
X138159698Y-86961673D01*
X137926309Y-86865000D01*
X137585750Y-86865000D01*
X137524406Y-86926344D01*
X137376309Y-86865000D01*
X137283750Y-86865000D01*
X137149000Y-86999750D01*
X137127002Y-86977752D01*
X137127002Y-86865000D01*
X137035000Y-86865000D01*
X137035000Y-86265000D01*
X139008217Y-86265000D01*
X139120000Y-86287235D01*
X139231783Y-86265000D01*
X139562855Y-86199146D01*
X139938289Y-85948289D01*
X140001613Y-85853518D01*
X140050131Y-85805000D01*
X140609037Y-85805000D01*
X141272450Y-85530205D01*
X141780205Y-85022450D01*
X142055000Y-84359037D01*
X142055000Y-83640963D01*
X141780205Y-82977550D01*
X141437655Y-82635000D01*
X142632345Y-82635000D01*
X143027550Y-83030205D01*
X143690963Y-83305000D01*
X144409037Y-83305000D01*
X145072450Y-83030205D01*
X145580205Y-82522450D01*
X145855000Y-81859037D01*
X145855000Y-81140963D01*
X145580205Y-80477550D01*
X145072450Y-79969795D01*
X144409037Y-79695000D01*
X143690963Y-79695000D01*
X143027550Y-79969795D01*
X142632345Y-80365000D01*
X141437655Y-80365000D01*
X141780205Y-80022450D01*
X142055000Y-79359037D01*
X142055000Y-78640963D01*
X141780205Y-77977550D01*
X141272450Y-77469795D01*
X140609037Y-77195000D01*
X140028585Y-77195000D01*
X139812855Y-77050854D01*
X139481783Y-76985000D01*
X139370000Y-76962765D01*
X139258217Y-76985000D01*
X137135000Y-76985000D01*
X137135000Y-73361781D01*
X137157235Y-73249999D01*
X137135000Y-73138217D01*
X137069146Y-72807145D01*
X136818289Y-72431711D01*
X136723522Y-72368390D01*
X132129366Y-67774234D01*
X154865000Y-67774234D01*
X154865000Y-68225766D01*
X155037793Y-68642926D01*
X155357074Y-68962207D01*
X155774234Y-69135000D01*
X156225766Y-69135000D01*
X156642926Y-68962207D01*
X156962207Y-68642926D01*
X157135000Y-68225766D01*
X157135000Y-67774234D01*
X156962207Y-67357074D01*
X156642926Y-67037793D01*
X156225766Y-66865000D01*
X155774234Y-66865000D01*
X155357074Y-67037793D01*
X155037793Y-67357074D01*
X154865000Y-67774234D01*
X132129366Y-67774234D01*
X130881613Y-66526482D01*
X130818289Y-66431711D01*
X130442855Y-66180854D01*
X130111783Y-66115000D01*
X130000000Y-66092765D01*
X129888217Y-66115000D01*
X98861783Y-66115000D01*
X98750000Y-66092765D01*
X98638217Y-66115000D01*
X98307145Y-66180854D01*
X97931711Y-66431711D01*
X97868389Y-66526479D01*
X95236480Y-69158389D01*
X95141712Y-69221711D01*
X94956085Y-69499522D01*
X94890854Y-69597146D01*
X94802765Y-70040000D01*
X94825001Y-70151788D01*
X94825000Y-71251239D01*
X94548350Y-71665275D01*
X94432041Y-72250000D01*
X94548350Y-72834725D01*
X94825000Y-73248761D01*
X94825000Y-73344035D01*
X94638591Y-73468591D01*
X94498243Y-73678635D01*
X94448960Y-73926400D01*
X94448960Y-74645908D01*
X92216482Y-76878387D01*
X92121711Y-76941711D01*
X91911352Y-77256537D01*
X91870854Y-77317146D01*
X91782765Y-77760000D01*
X91805000Y-77871783D01*
X91805001Y-83516814D01*
X91707765Y-83451843D01*
X91460000Y-83402560D01*
X90000000Y-83402560D01*
X89752235Y-83451843D01*
X89542191Y-83592191D01*
X89401843Y-83802235D01*
X89352560Y-84050000D01*
X89352560Y-86450000D01*
X89401843Y-86697765D01*
X89542191Y-86907809D01*
X89542517Y-86908027D01*
X89322235Y-86951843D01*
X89254508Y-86997097D01*
X89056309Y-86915000D01*
X88933025Y-86915000D01*
X89038327Y-86809699D01*
X89135000Y-86576310D01*
X89135000Y-85535750D01*
X88976250Y-85377000D01*
X87897000Y-85377000D01*
X87897000Y-85397000D01*
X87643000Y-85397000D01*
X87643000Y-85377000D01*
X86563750Y-85377000D01*
X86405000Y-85535750D01*
X86405000Y-86576310D01*
X86501673Y-86809699D01*
X86680302Y-86988327D01*
X86913691Y-87085000D01*
X87376975Y-87085000D01*
X87271673Y-87190301D01*
X87175000Y-87423690D01*
X87175000Y-87964250D01*
X87333750Y-88123000D01*
X88243000Y-88123000D01*
X88243000Y-88103000D01*
X88497000Y-88103000D01*
X88497000Y-88123000D01*
X88517000Y-88123000D01*
X88517000Y-88377000D01*
X88497000Y-88377000D01*
X88497000Y-90123000D01*
X88517000Y-90123000D01*
X88517000Y-90377000D01*
X88497000Y-90377000D01*
X88497000Y-91426250D01*
X88655750Y-91585000D01*
X89056309Y-91585000D01*
X89254508Y-91502903D01*
X89322235Y-91548157D01*
X89570000Y-91597440D01*
X90690000Y-91597440D01*
X90937765Y-91548157D01*
X91147809Y-91407809D01*
X91163050Y-91385000D01*
X91805000Y-91385000D01*
X91805001Y-92888213D01*
X91805000Y-92888218D01*
X91805000Y-93506975D01*
X91759698Y-93461673D01*
X91526309Y-93365000D01*
X90685750Y-93365000D01*
X90527000Y-93523750D01*
X90527000Y-95373000D01*
X90547000Y-95373000D01*
X90547000Y-95627000D01*
X90527000Y-95627000D01*
X90527000Y-95647000D01*
X90273000Y-95647000D01*
X90273000Y-95627000D01*
X88923750Y-95627000D01*
X88765000Y-95785750D01*
X88765000Y-97126310D01*
X88832803Y-97290000D01*
X87132246Y-97290000D01*
X87650943Y-96771303D01*
X88127000Y-95621999D01*
X88127000Y-94378001D01*
X87918108Y-93873690D01*
X88765000Y-93873690D01*
X88765000Y-95214250D01*
X88923750Y-95373000D01*
X90273000Y-95373000D01*
X90273000Y-93523750D01*
X90114250Y-93365000D01*
X89273691Y-93365000D01*
X89040302Y-93461673D01*
X88861673Y-93640301D01*
X88765000Y-93873690D01*
X87918108Y-93873690D01*
X87650943Y-93228697D01*
X86771303Y-92349057D01*
X85621999Y-91873000D01*
X84378001Y-91873000D01*
X83228697Y-92349057D01*
X82710000Y-92867754D01*
X82710000Y-90535750D01*
X87175000Y-90535750D01*
X87175000Y-91076310D01*
X87271673Y-91309699D01*
X87450302Y-91488327D01*
X87683691Y-91585000D01*
X88084250Y-91585000D01*
X88243000Y-91426250D01*
X88243000Y-90377000D01*
X87333750Y-90377000D01*
X87175000Y-90535750D01*
X82710000Y-90535750D01*
X82710000Y-88535750D01*
X87175000Y-88535750D01*
X87175000Y-89076310D01*
X87246945Y-89250000D01*
X87175000Y-89423690D01*
X87175000Y-89964250D01*
X87333750Y-90123000D01*
X88243000Y-90123000D01*
X88243000Y-88377000D01*
X87333750Y-88377000D01*
X87175000Y-88535750D01*
X82710000Y-88535750D01*
X82710000Y-83923690D01*
X86405000Y-83923690D01*
X86405000Y-84964250D01*
X86563750Y-85123000D01*
X87643000Y-85123000D01*
X87643000Y-83573750D01*
X87897000Y-83573750D01*
X87897000Y-85123000D01*
X88976250Y-85123000D01*
X89135000Y-84964250D01*
X89135000Y-83923690D01*
X89038327Y-83690301D01*
X88859698Y-83511673D01*
X88626309Y-83415000D01*
X88055750Y-83415000D01*
X87897000Y-83573750D01*
X87643000Y-83573750D01*
X87484250Y-83415000D01*
X86913691Y-83415000D01*
X86680302Y-83511673D01*
X86501673Y-83690301D01*
X86405000Y-83923690D01*
X82710000Y-83923690D01*
X82710000Y-67774234D01*
X88865000Y-67774234D01*
X88865000Y-68225766D01*
X89037793Y-68642926D01*
X89357074Y-68962207D01*
X89774234Y-69135000D01*
X90225766Y-69135000D01*
X90642926Y-68962207D01*
X90962207Y-68642926D01*
X91135000Y-68225766D01*
X91135000Y-67774234D01*
X90962207Y-67357074D01*
X90642926Y-67037793D01*
X90225766Y-66865000D01*
X89774234Y-66865000D01*
X89357074Y-67037793D01*
X89037793Y-67357074D01*
X88865000Y-67774234D01*
X82710000Y-67774234D01*
X82710000Y-66132246D01*
X83228697Y-66650943D01*
X84378001Y-67127000D01*
X85621999Y-67127000D01*
X86771303Y-66650943D01*
X87650943Y-65771303D01*
X88127000Y-64621999D01*
X88127000Y-63378001D01*
X87650943Y-62228697D01*
X87132246Y-61710000D01*
X157867754Y-61710000D01*
X157349057Y-62228697D01*
X157349057Y-62228697D01*
G37*
X157349057Y-62228697D02*
X156873000Y-63378001D01*
X156873000Y-64621999D01*
X157349057Y-65771303D01*
X158228697Y-66650943D01*
X159378001Y-67127000D01*
X160621999Y-67127000D01*
X161771303Y-66650943D01*
X162290001Y-66132245D01*
X162290000Y-92867754D01*
X161771303Y-92349057D01*
X160621999Y-91873000D01*
X159378001Y-91873000D01*
X158228697Y-92349057D01*
X157349057Y-93228697D01*
X156873000Y-94378001D01*
X156873000Y-95621999D01*
X157349057Y-96771303D01*
X157867754Y-97290000D01*
X129512300Y-97290000D01*
X129678769Y-97178769D01*
X130040136Y-96637945D01*
X130135000Y-96161031D01*
X130135000Y-94838969D01*
X130040136Y-94362055D01*
X129678769Y-93821231D01*
X129137944Y-93459864D01*
X128500000Y-93332969D01*
X127862055Y-93459864D01*
X127321231Y-93821231D01*
X127230000Y-93957768D01*
X127138769Y-93821231D01*
X126995000Y-93725168D01*
X126995000Y-92035000D01*
X129798066Y-92035000D01*
X129900000Y-92055276D01*
X130001934Y-92035000D01*
X130001935Y-92035000D01*
X130303837Y-91974948D01*
X130646193Y-91746193D01*
X130703937Y-91659773D01*
X131589476Y-90774234D01*
X154865000Y-90774234D01*
X154865000Y-91225766D01*
X155037793Y-91642926D01*
X155357074Y-91962207D01*
X155774234Y-92135000D01*
X156225766Y-92135000D01*
X156642926Y-91962207D01*
X156962207Y-91642926D01*
X157135000Y-91225766D01*
X157135000Y-90774234D01*
X156962207Y-90357074D01*
X156642926Y-90037793D01*
X156225766Y-89865000D01*
X155774234Y-89865000D01*
X155357074Y-90037793D01*
X155037793Y-90357074D01*
X154865000Y-90774234D01*
X131589476Y-90774234D01*
X133078711Y-89285000D01*
X133871021Y-89285000D01*
X133888636Y-89311363D01*
X134260893Y-89560096D01*
X134699999Y-89647440D01*
X134700001Y-89647440D01*
X134725000Y-89642467D01*
X134750000Y-89647440D01*
X135250000Y-89647440D01*
X135375000Y-89622576D01*
X135500000Y-89647440D01*
X136500000Y-89647440D01*
X136603853Y-89626783D01*
X136623691Y-89635000D01*
X137014250Y-89635000D01*
X137149000Y-89500250D01*
X137283750Y-89635000D01*
X137376309Y-89635000D01*
X137524406Y-89573656D01*
X137585750Y-89635000D01*
X137926309Y-89635000D01*
X138159698Y-89538327D01*
X138338327Y-89359699D01*
X138435000Y-89126310D01*
X138435000Y-88535750D01*
X138276250Y-88377000D01*
X137153000Y-88377000D01*
X137153000Y-88123000D01*
X138276250Y-88123000D01*
X138435000Y-87964250D01*
X138435000Y-87373690D01*
X138338327Y-87140301D01*
X138159698Y-86961673D01*
X137926309Y-86865000D01*
X137585750Y-86865000D01*
X137524406Y-86926344D01*
X137376309Y-86865000D01*
X137283750Y-86865000D01*
X137149000Y-86999750D01*
X137127002Y-86977752D01*
X137127002Y-86865000D01*
X137035000Y-86865000D01*
X137035000Y-86265000D01*
X139008217Y-86265000D01*
X139120000Y-86287235D01*
X139231783Y-86265000D01*
X139562855Y-86199146D01*
X139938289Y-85948289D01*
X140001613Y-85853518D01*
X140050131Y-85805000D01*
X140609037Y-85805000D01*
X141272450Y-85530205D01*
X141780205Y-85022450D01*
X142055000Y-84359037D01*
X142055000Y-83640963D01*
X141780205Y-82977550D01*
X141437655Y-82635000D01*
X142632345Y-82635000D01*
X143027550Y-83030205D01*
X143690963Y-83305000D01*
X144409037Y-83305000D01*
X145072450Y-83030205D01*
X145580205Y-82522450D01*
X145855000Y-81859037D01*
X145855000Y-81140963D01*
X145580205Y-80477550D01*
X145072450Y-79969795D01*
X144409037Y-79695000D01*
X143690963Y-79695000D01*
X143027550Y-79969795D01*
X142632345Y-80365000D01*
X141437655Y-80365000D01*
X141780205Y-80022450D01*
X142055000Y-79359037D01*
X142055000Y-78640963D01*
X141780205Y-77977550D01*
X141272450Y-77469795D01*
X140609037Y-77195000D01*
X140028585Y-77195000D01*
X139812855Y-77050854D01*
X139481783Y-76985000D01*
X139370000Y-76962765D01*
X139258217Y-76985000D01*
X137135000Y-76985000D01*
X137135000Y-73361781D01*
X137157235Y-73249999D01*
X137135000Y-73138217D01*
X137069146Y-72807145D01*
X136818289Y-72431711D01*
X136723522Y-72368390D01*
X132129366Y-67774234D01*
X154865000Y-67774234D01*
X154865000Y-68225766D01*
X155037793Y-68642926D01*
X155357074Y-68962207D01*
X155774234Y-69135000D01*
X156225766Y-69135000D01*
X156642926Y-68962207D01*
X156962207Y-68642926D01*
X157135000Y-68225766D01*
X157135000Y-67774234D01*
X156962207Y-67357074D01*
X156642926Y-67037793D01*
X156225766Y-66865000D01*
X155774234Y-66865000D01*
X155357074Y-67037793D01*
X155037793Y-67357074D01*
X154865000Y-67774234D01*
X132129366Y-67774234D01*
X130881613Y-66526482D01*
X130818289Y-66431711D01*
X130442855Y-66180854D01*
X130111783Y-66115000D01*
X130000000Y-66092765D01*
X129888217Y-66115000D01*
X98861783Y-66115000D01*
X98750000Y-66092765D01*
X98638217Y-66115000D01*
X98307145Y-66180854D01*
X97931711Y-66431711D01*
X97868389Y-66526479D01*
X95236480Y-69158389D01*
X95141712Y-69221711D01*
X94956085Y-69499522D01*
X94890854Y-69597146D01*
X94802765Y-70040000D01*
X94825001Y-70151788D01*
X94825000Y-71251239D01*
X94548350Y-71665275D01*
X94432041Y-72250000D01*
X94548350Y-72834725D01*
X94825000Y-73248761D01*
X94825000Y-73344035D01*
X94638591Y-73468591D01*
X94498243Y-73678635D01*
X94448960Y-73926400D01*
X94448960Y-74645908D01*
X92216482Y-76878387D01*
X92121711Y-76941711D01*
X91911352Y-77256537D01*
X91870854Y-77317146D01*
X91782765Y-77760000D01*
X91805000Y-77871783D01*
X91805001Y-83516814D01*
X91707765Y-83451843D01*
X91460000Y-83402560D01*
X90000000Y-83402560D01*
X89752235Y-83451843D01*
X89542191Y-83592191D01*
X89401843Y-83802235D01*
X89352560Y-84050000D01*
X89352560Y-86450000D01*
X89401843Y-86697765D01*
X89542191Y-86907809D01*
X89542517Y-86908027D01*
X89322235Y-86951843D01*
X89254508Y-86997097D01*
X89056309Y-86915000D01*
X88933025Y-86915000D01*
X89038327Y-86809699D01*
X89135000Y-86576310D01*
X89135000Y-85535750D01*
X88976250Y-85377000D01*
X87897000Y-85377000D01*
X87897000Y-85397000D01*
X87643000Y-85397000D01*
X87643000Y-85377000D01*
X86563750Y-85377000D01*
X86405000Y-85535750D01*
X86405000Y-86576310D01*
X86501673Y-86809699D01*
X86680302Y-86988327D01*
X86913691Y-87085000D01*
X87376975Y-87085000D01*
X87271673Y-87190301D01*
X87175000Y-87423690D01*
X87175000Y-87964250D01*
X87333750Y-88123000D01*
X88243000Y-88123000D01*
X88243000Y-88103000D01*
X88497000Y-88103000D01*
X88497000Y-88123000D01*
X88517000Y-88123000D01*
X88517000Y-88377000D01*
X88497000Y-88377000D01*
X88497000Y-90123000D01*
X88517000Y-90123000D01*
X88517000Y-90377000D01*
X88497000Y-90377000D01*
X88497000Y-91426250D01*
X88655750Y-91585000D01*
X89056309Y-91585000D01*
X89254508Y-91502903D01*
X89322235Y-91548157D01*
X89570000Y-91597440D01*
X90690000Y-91597440D01*
X90937765Y-91548157D01*
X91147809Y-91407809D01*
X91163050Y-91385000D01*
X91805000Y-91385000D01*
X91805001Y-92888213D01*
X91805000Y-92888218D01*
X91805000Y-93506975D01*
X91759698Y-93461673D01*
X91526309Y-93365000D01*
X90685750Y-93365000D01*
X90527000Y-93523750D01*
X90527000Y-95373000D01*
X90547000Y-95373000D01*
X90547000Y-95627000D01*
X90527000Y-95627000D01*
X90527000Y-95647000D01*
X90273000Y-95647000D01*
X90273000Y-95627000D01*
X88923750Y-95627000D01*
X88765000Y-95785750D01*
X88765000Y-97126310D01*
X88832803Y-97290000D01*
X87132246Y-97290000D01*
X87650943Y-96771303D01*
X88127000Y-95621999D01*
X88127000Y-94378001D01*
X87918108Y-93873690D01*
X88765000Y-93873690D01*
X88765000Y-95214250D01*
X88923750Y-95373000D01*
X90273000Y-95373000D01*
X90273000Y-93523750D01*
X90114250Y-93365000D01*
X89273691Y-93365000D01*
X89040302Y-93461673D01*
X88861673Y-93640301D01*
X88765000Y-93873690D01*
X87918108Y-93873690D01*
X87650943Y-93228697D01*
X86771303Y-92349057D01*
X85621999Y-91873000D01*
X84378001Y-91873000D01*
X83228697Y-92349057D01*
X82710000Y-92867754D01*
X82710000Y-90535750D01*
X87175000Y-90535750D01*
X87175000Y-91076310D01*
X87271673Y-91309699D01*
X87450302Y-91488327D01*
X87683691Y-91585000D01*
X88084250Y-91585000D01*
X88243000Y-91426250D01*
X88243000Y-90377000D01*
X87333750Y-90377000D01*
X87175000Y-90535750D01*
X82710000Y-90535750D01*
X82710000Y-88535750D01*
X87175000Y-88535750D01*
X87175000Y-89076310D01*
X87246945Y-89250000D01*
X87175000Y-89423690D01*
X87175000Y-89964250D01*
X87333750Y-90123000D01*
X88243000Y-90123000D01*
X88243000Y-88377000D01*
X87333750Y-88377000D01*
X87175000Y-88535750D01*
X82710000Y-88535750D01*
X82710000Y-83923690D01*
X86405000Y-83923690D01*
X86405000Y-84964250D01*
X86563750Y-85123000D01*
X87643000Y-85123000D01*
X87643000Y-83573750D01*
X87897000Y-83573750D01*
X87897000Y-85123000D01*
X88976250Y-85123000D01*
X89135000Y-84964250D01*
X89135000Y-83923690D01*
X89038327Y-83690301D01*
X88859698Y-83511673D01*
X88626309Y-83415000D01*
X88055750Y-83415000D01*
X87897000Y-83573750D01*
X87643000Y-83573750D01*
X87484250Y-83415000D01*
X86913691Y-83415000D01*
X86680302Y-83511673D01*
X86501673Y-83690301D01*
X86405000Y-83923690D01*
X82710000Y-83923690D01*
X82710000Y-67774234D01*
X88865000Y-67774234D01*
X88865000Y-68225766D01*
X89037793Y-68642926D01*
X89357074Y-68962207D01*
X89774234Y-69135000D01*
X90225766Y-69135000D01*
X90642926Y-68962207D01*
X90962207Y-68642926D01*
X91135000Y-68225766D01*
X91135000Y-67774234D01*
X90962207Y-67357074D01*
X90642926Y-67037793D01*
X90225766Y-66865000D01*
X89774234Y-66865000D01*
X89357074Y-67037793D01*
X89037793Y-67357074D01*
X88865000Y-67774234D01*
X82710000Y-67774234D01*
X82710000Y-66132246D01*
X83228697Y-66650943D01*
X84378001Y-67127000D01*
X85621999Y-67127000D01*
X86771303Y-66650943D01*
X87650943Y-65771303D01*
X88127000Y-64621999D01*
X88127000Y-63378001D01*
X87650943Y-62228697D01*
X87132246Y-61710000D01*
X157867754Y-61710000D01*
X157349057Y-62228697D01*
G36*
X98675000Y-84923690D02*
X98675000Y-85464250D01*
X98833750Y-85623000D01*
X99743000Y-85623000D01*
X99743000Y-85603000D01*
X99997000Y-85603000D01*
X99997000Y-85623000D01*
X100017000Y-85623000D01*
X100017000Y-85877000D01*
X99997000Y-85877000D01*
X99997000Y-86926250D01*
X100155750Y-87085000D01*
X100556309Y-87085000D01*
X100754508Y-87002903D01*
X100822235Y-87048157D01*
X101070000Y-87097440D01*
X101977759Y-87097440D01*
X101115530Y-87959669D01*
X101052071Y-88002071D01*
X100884096Y-88253464D01*
X100840000Y-88475149D01*
X100840000Y-88475153D01*
X100825112Y-88550000D01*
X100840000Y-88624847D01*
X100840001Y-90625148D01*
X100825112Y-90700000D01*
X100884097Y-90996537D01*
X100963604Y-91115527D01*
X101052072Y-91247929D01*
X101115528Y-91290329D01*
X101909670Y-92084472D01*
X101952071Y-92147929D01*
X102203463Y-92315904D01*
X102425148Y-92360000D01*
X102425152Y-92360000D01*
X102499999Y-92374888D01*
X102574846Y-92360000D01*
X103685199Y-92360000D01*
X104871977Y-93546779D01*
X104461231Y-93821231D01*
X104370000Y-93957768D01*
X104278769Y-93821231D01*
X103737944Y-93459864D01*
X103100000Y-93332969D01*
X102462055Y-93459864D01*
X101921231Y-93821231D01*
X101830000Y-93957768D01*
X101738769Y-93821231D01*
X101197944Y-93459864D01*
X100560000Y-93332969D01*
X99922055Y-93459864D01*
X99381231Y-93821231D01*
X99290000Y-93957768D01*
X99198769Y-93821231D01*
X98657944Y-93459864D01*
X98020000Y-93332969D01*
X97382055Y-93459864D01*
X96841231Y-93821231D01*
X96750000Y-93957768D01*
X96658769Y-93821231D01*
X96117944Y-93459864D01*
X95480000Y-93332969D01*
X94842055Y-93459864D01*
X94301231Y-93821231D01*
X94210000Y-93957768D01*
X94118769Y-93821231D01*
X94075000Y-93791986D01*
X94075000Y-90361783D01*
X94097235Y-90250000D01*
X94075000Y-90138217D01*
X94075000Y-88361783D01*
X94097235Y-88250000D01*
X94075000Y-88138217D01*
X94075000Y-86035750D01*
X98675000Y-86035750D01*
X98675000Y-86576310D01*
X98771673Y-86809699D01*
X98950302Y-86988327D01*
X99183691Y-87085000D01*
X99584250Y-87085000D01*
X99743000Y-86926250D01*
X99743000Y-85877000D01*
X98833750Y-85877000D01*
X98675000Y-86035750D01*
X94075000Y-86035750D01*
X94075000Y-85361783D01*
X94097235Y-85250000D01*
X94075000Y-85138217D01*
X94075000Y-84885000D01*
X98691026Y-84885000D01*
X98675000Y-84923690D01*
X98675000Y-84923690D01*
G37*
X98675000Y-84923690D02*
X98675000Y-85464250D01*
X98833750Y-85623000D01*
X99743000Y-85623000D01*
X99743000Y-85603000D01*
X99997000Y-85603000D01*
X99997000Y-85623000D01*
X100017000Y-85623000D01*
X100017000Y-85877000D01*
X99997000Y-85877000D01*
X99997000Y-86926250D01*
X100155750Y-87085000D01*
X100556309Y-87085000D01*
X100754508Y-87002903D01*
X100822235Y-87048157D01*
X101070000Y-87097440D01*
X101977759Y-87097440D01*
X101115530Y-87959669D01*
X101052071Y-88002071D01*
X100884096Y-88253464D01*
X100840000Y-88475149D01*
X100840000Y-88475153D01*
X100825112Y-88550000D01*
X100840000Y-88624847D01*
X100840001Y-90625148D01*
X100825112Y-90700000D01*
X100884097Y-90996537D01*
X100963604Y-91115527D01*
X101052072Y-91247929D01*
X101115528Y-91290329D01*
X101909670Y-92084472D01*
X101952071Y-92147929D01*
X102203463Y-92315904D01*
X102425148Y-92360000D01*
X102425152Y-92360000D01*
X102499999Y-92374888D01*
X102574846Y-92360000D01*
X103685199Y-92360000D01*
X104871977Y-93546779D01*
X104461231Y-93821231D01*
X104370000Y-93957768D01*
X104278769Y-93821231D01*
X103737944Y-93459864D01*
X103100000Y-93332969D01*
X102462055Y-93459864D01*
X101921231Y-93821231D01*
X101830000Y-93957768D01*
X101738769Y-93821231D01*
X101197944Y-93459864D01*
X100560000Y-93332969D01*
X99922055Y-93459864D01*
X99381231Y-93821231D01*
X99290000Y-93957768D01*
X99198769Y-93821231D01*
X98657944Y-93459864D01*
X98020000Y-93332969D01*
X97382055Y-93459864D01*
X96841231Y-93821231D01*
X96750000Y-93957768D01*
X96658769Y-93821231D01*
X96117944Y-93459864D01*
X95480000Y-93332969D01*
X94842055Y-93459864D01*
X94301231Y-93821231D01*
X94210000Y-93957768D01*
X94118769Y-93821231D01*
X94075000Y-93791986D01*
X94075000Y-90361783D01*
X94097235Y-90250000D01*
X94075000Y-90138217D01*
X94075000Y-88361783D01*
X94097235Y-88250000D01*
X94075000Y-88138217D01*
X94075000Y-86035750D01*
X98675000Y-86035750D01*
X98675000Y-86576310D01*
X98771673Y-86809699D01*
X98950302Y-86988327D01*
X99183691Y-87085000D01*
X99584250Y-87085000D01*
X99743000Y-86926250D01*
X99743000Y-85877000D01*
X98833750Y-85877000D01*
X98675000Y-86035750D01*
X94075000Y-86035750D01*
X94075000Y-85361783D01*
X94097235Y-85250000D01*
X94075000Y-85138217D01*
X94075000Y-84885000D01*
X98691026Y-84885000D01*
X98675000Y-84923690D01*
G36*
X116009375Y-75820625D02*
X116320001Y-76028179D01*
X116320000Y-78305198D01*
X113310199Y-81315000D01*
X112767285Y-81315000D01*
X112672765Y-81251843D01*
X112425000Y-81202560D01*
X110975000Y-81202560D01*
X110727235Y-81251843D01*
X110517191Y-81392191D01*
X110376843Y-81602235D01*
X110327560Y-81850000D01*
X110327560Y-82300000D01*
X110347451Y-82400000D01*
X110327560Y-82500000D01*
X110327560Y-82950000D01*
X110347451Y-83050000D01*
X110327560Y-83150000D01*
X110327560Y-83600000D01*
X110347451Y-83700000D01*
X110327560Y-83800000D01*
X110327560Y-84250000D01*
X110347451Y-84350000D01*
X110327560Y-84450000D01*
X110327560Y-84900000D01*
X110341498Y-84970073D01*
X110340000Y-84973690D01*
X110340000Y-85053750D01*
X110362647Y-85076397D01*
X110376843Y-85147765D01*
X110495269Y-85325000D01*
X110376843Y-85502235D01*
X110362647Y-85573603D01*
X110340000Y-85596250D01*
X110340000Y-85676310D01*
X110341498Y-85679927D01*
X110327560Y-85750000D01*
X110327560Y-86200000D01*
X110347451Y-86300000D01*
X110327560Y-86400000D01*
X110327560Y-86850000D01*
X110347451Y-86950000D01*
X110327560Y-87050000D01*
X110327560Y-87500000D01*
X110347451Y-87600000D01*
X110327560Y-87700000D01*
X110327560Y-88150000D01*
X110376843Y-88397765D01*
X110517191Y-88607809D01*
X110727235Y-88748157D01*
X110975000Y-88797440D01*
X112425000Y-88797440D01*
X112500001Y-88782522D01*
X112500000Y-93541418D01*
X112081231Y-93821231D01*
X111990000Y-93957768D01*
X111898769Y-93821231D01*
X111357944Y-93459864D01*
X110720000Y-93332969D01*
X110082055Y-93459864D01*
X109885799Y-93590998D01*
X106560000Y-90265199D01*
X106560000Y-88790478D01*
X106772765Y-88748157D01*
X106982809Y-88607809D01*
X107123157Y-88397765D01*
X107172440Y-88150000D01*
X107172440Y-87700000D01*
X107152549Y-87600000D01*
X107172440Y-87500000D01*
X107172440Y-87050000D01*
X107152549Y-86950000D01*
X107172440Y-86850000D01*
X107172440Y-86400000D01*
X107152549Y-86300000D01*
X107172440Y-86200000D01*
X107172440Y-85750000D01*
X107152549Y-85650000D01*
X107172440Y-85550000D01*
X107172440Y-85100000D01*
X107152549Y-85000000D01*
X107172440Y-84900000D01*
X107172440Y-84673483D01*
X107322929Y-84572929D01*
X107365331Y-84509471D01*
X107734473Y-84140329D01*
X107797929Y-84097929D01*
X107965904Y-83846537D01*
X108010000Y-83624852D01*
X108010000Y-83624848D01*
X108024888Y-83550001D01*
X108010000Y-83475154D01*
X108010000Y-80064801D01*
X109414802Y-78660000D01*
X113525153Y-78660000D01*
X113600000Y-78674888D01*
X113674847Y-78660000D01*
X113674852Y-78660000D01*
X113896537Y-78615904D01*
X114147929Y-78447929D01*
X114190331Y-78384470D01*
X115024473Y-77550329D01*
X115087929Y-77507929D01*
X115130924Y-77443582D01*
X115255904Y-77256538D01*
X115265480Y-77208395D01*
X115300000Y-77034852D01*
X115300000Y-77034848D01*
X115314888Y-76960000D01*
X115300000Y-76885152D01*
X115300000Y-76028178D01*
X115610625Y-75820625D01*
X115810000Y-75522239D01*
X116009375Y-75820625D01*
X116009375Y-75820625D01*
G37*
X116009375Y-75820625D02*
X116320001Y-76028179D01*
X116320000Y-78305198D01*
X113310199Y-81315000D01*
X112767285Y-81315000D01*
X112672765Y-81251843D01*
X112425000Y-81202560D01*
X110975000Y-81202560D01*
X110727235Y-81251843D01*
X110517191Y-81392191D01*
X110376843Y-81602235D01*
X110327560Y-81850000D01*
X110327560Y-82300000D01*
X110347451Y-82400000D01*
X110327560Y-82500000D01*
X110327560Y-82950000D01*
X110347451Y-83050000D01*
X110327560Y-83150000D01*
X110327560Y-83600000D01*
X110347451Y-83700000D01*
X110327560Y-83800000D01*
X110327560Y-84250000D01*
X110347451Y-84350000D01*
X110327560Y-84450000D01*
X110327560Y-84900000D01*
X110341498Y-84970073D01*
X110340000Y-84973690D01*
X110340000Y-85053750D01*
X110362647Y-85076397D01*
X110376843Y-85147765D01*
X110495269Y-85325000D01*
X110376843Y-85502235D01*
X110362647Y-85573603D01*
X110340000Y-85596250D01*
X110340000Y-85676310D01*
X110341498Y-85679927D01*
X110327560Y-85750000D01*
X110327560Y-86200000D01*
X110347451Y-86300000D01*
X110327560Y-86400000D01*
X110327560Y-86850000D01*
X110347451Y-86950000D01*
X110327560Y-87050000D01*
X110327560Y-87500000D01*
X110347451Y-87600000D01*
X110327560Y-87700000D01*
X110327560Y-88150000D01*
X110376843Y-88397765D01*
X110517191Y-88607809D01*
X110727235Y-88748157D01*
X110975000Y-88797440D01*
X112425000Y-88797440D01*
X112500001Y-88782522D01*
X112500000Y-93541418D01*
X112081231Y-93821231D01*
X111990000Y-93957768D01*
X111898769Y-93821231D01*
X111357944Y-93459864D01*
X110720000Y-93332969D01*
X110082055Y-93459864D01*
X109885799Y-93590998D01*
X106560000Y-90265199D01*
X106560000Y-88790478D01*
X106772765Y-88748157D01*
X106982809Y-88607809D01*
X107123157Y-88397765D01*
X107172440Y-88150000D01*
X107172440Y-87700000D01*
X107152549Y-87600000D01*
X107172440Y-87500000D01*
X107172440Y-87050000D01*
X107152549Y-86950000D01*
X107172440Y-86850000D01*
X107172440Y-86400000D01*
X107152549Y-86300000D01*
X107172440Y-86200000D01*
X107172440Y-85750000D01*
X107152549Y-85650000D01*
X107172440Y-85550000D01*
X107172440Y-85100000D01*
X107152549Y-85000000D01*
X107172440Y-84900000D01*
X107172440Y-84673483D01*
X107322929Y-84572929D01*
X107365331Y-84509471D01*
X107734473Y-84140329D01*
X107797929Y-84097929D01*
X107965904Y-83846537D01*
X108010000Y-83624852D01*
X108010000Y-83624848D01*
X108024888Y-83550001D01*
X108010000Y-83475154D01*
X108010000Y-80064801D01*
X109414802Y-78660000D01*
X113525153Y-78660000D01*
X113600000Y-78674888D01*
X113674847Y-78660000D01*
X113674852Y-78660000D01*
X113896537Y-78615904D01*
X114147929Y-78447929D01*
X114190331Y-78384470D01*
X115024473Y-77550329D01*
X115087929Y-77507929D01*
X115130924Y-77443582D01*
X115255904Y-77256538D01*
X115265480Y-77208395D01*
X115300000Y-77034852D01*
X115300000Y-77034848D01*
X115314888Y-76960000D01*
X115300000Y-76885152D01*
X115300000Y-76028178D01*
X115610625Y-75820625D01*
X115810000Y-75522239D01*
X116009375Y-75820625D01*
G36*
X130465000Y-85571289D02*
X128821290Y-87215000D01*
X128128979Y-87215000D01*
X128111364Y-87188637D01*
X127739107Y-86939904D01*
X127300001Y-86852560D01*
X127299999Y-86852560D01*
X127275000Y-86857533D01*
X127250000Y-86852560D01*
X126750000Y-86852560D01*
X126625000Y-86877424D01*
X126500000Y-86852560D01*
X125500000Y-86852560D01*
X125375000Y-86877424D01*
X125250000Y-86852560D01*
X124766271Y-86852560D01*
X124035000Y-86121290D01*
X124035000Y-84369126D01*
X123995224Y-84273099D01*
X123974948Y-84171163D01*
X123917207Y-84084747D01*
X123877431Y-83988720D01*
X123803935Y-83915224D01*
X123746193Y-83828807D01*
X123659776Y-83771065D01*
X123586280Y-83697569D01*
X123490253Y-83657793D01*
X123403837Y-83600052D01*
X123301902Y-83579776D01*
X123205874Y-83540000D01*
X123101935Y-83540000D01*
X123000000Y-83519724D01*
X122898066Y-83540000D01*
X122794126Y-83540000D01*
X122698098Y-83579776D01*
X122596164Y-83600052D01*
X122509749Y-83657792D01*
X122413720Y-83697569D01*
X122340222Y-83771067D01*
X122253808Y-83828807D01*
X122196068Y-83915221D01*
X122122569Y-83988720D01*
X122082792Y-84084751D01*
X122025053Y-84171163D01*
X122004778Y-84273094D01*
X121965000Y-84369126D01*
X121965000Y-84780874D01*
X121965001Y-84780876D01*
X121965000Y-85319121D01*
X121965000Y-86448066D01*
X121944724Y-86550000D01*
X121965000Y-86651934D01*
X121965000Y-86655874D01*
X121966508Y-86659514D01*
X122025052Y-86953836D01*
X122253807Y-87296193D01*
X122340227Y-87353937D01*
X123569014Y-88582725D01*
X123639903Y-88939106D01*
X123888636Y-89311363D01*
X124260893Y-89560096D01*
X124699999Y-89647440D01*
X124700001Y-89647440D01*
X124725000Y-89642467D01*
X124750000Y-89647440D01*
X124925000Y-89647440D01*
X124925000Y-90898065D01*
X124904724Y-91000000D01*
X124925001Y-91101939D01*
X124925000Y-93725167D01*
X124781231Y-93821231D01*
X124690000Y-93957768D01*
X124598769Y-93821231D01*
X124057944Y-93459864D01*
X123420000Y-93332969D01*
X122782055Y-93459864D01*
X122241231Y-93821231D01*
X122150000Y-93957768D01*
X122058769Y-93821231D01*
X121517944Y-93459864D01*
X120880000Y-93332969D01*
X120242055Y-93459864D01*
X119701231Y-93821231D01*
X119610000Y-93957768D01*
X119518769Y-93821231D01*
X119017871Y-93486542D01*
X118887929Y-93292071D01*
X118824470Y-93249669D01*
X118690331Y-93115530D01*
X118647929Y-93052071D01*
X118396537Y-92884096D01*
X118174852Y-92840000D01*
X118174847Y-92840000D01*
X118100000Y-92825112D01*
X118025153Y-92840000D01*
X116664802Y-92840000D01*
X116360331Y-92535530D01*
X116317929Y-92472071D01*
X116066537Y-92304096D01*
X115844852Y-92260000D01*
X115844847Y-92260000D01*
X115770000Y-92245112D01*
X115695153Y-92260000D01*
X115010000Y-92260000D01*
X115010000Y-90235750D01*
X116165000Y-90235750D01*
X116165000Y-90476310D01*
X116261673Y-90709699D01*
X116440302Y-90888327D01*
X116673691Y-90985000D01*
X116964250Y-90985000D01*
X117123000Y-90826250D01*
X117123000Y-90077000D01*
X117377000Y-90077000D01*
X117377000Y-90826250D01*
X117535750Y-90985000D01*
X117826309Y-90985000D01*
X118059698Y-90888327D01*
X118238327Y-90709699D01*
X118335000Y-90476310D01*
X118335000Y-90235750D01*
X118176250Y-90077000D01*
X117377000Y-90077000D01*
X117123000Y-90077000D01*
X116323750Y-90077000D01*
X116165000Y-90235750D01*
X115010000Y-90235750D01*
X115010000Y-88816932D01*
X115049999Y-88824888D01*
X115124846Y-88810000D01*
X116276837Y-88810000D01*
X116342191Y-88907809D01*
X116475694Y-88997013D01*
X116440302Y-89011673D01*
X116261673Y-89190301D01*
X116165000Y-89423690D01*
X116165000Y-89664250D01*
X116323750Y-89823000D01*
X117123000Y-89823000D01*
X117123000Y-89803000D01*
X117377000Y-89803000D01*
X117377000Y-89823000D01*
X118176250Y-89823000D01*
X118261781Y-89737469D01*
X118342191Y-89857809D01*
X118552235Y-89998157D01*
X118800000Y-90047440D01*
X119700000Y-90047440D01*
X119947765Y-89998157D01*
X120117115Y-89885000D01*
X121383422Y-89885000D01*
X121722569Y-90224148D01*
X121872569Y-90586280D01*
X122163720Y-90877431D01*
X122544126Y-91035000D01*
X122955874Y-91035000D01*
X123336280Y-90877431D01*
X123627431Y-90586280D01*
X123785000Y-90205874D01*
X123785000Y-89794126D01*
X123627431Y-89413720D01*
X123336280Y-89122569D01*
X122974148Y-88972569D01*
X122437425Y-88435847D01*
X122388049Y-88361951D01*
X122095310Y-88166348D01*
X121837165Y-88115000D01*
X121837161Y-88115000D01*
X121750000Y-88097663D01*
X121662839Y-88115000D01*
X120117115Y-88115000D01*
X119947765Y-88001843D01*
X119700000Y-87952560D01*
X118800000Y-87952560D01*
X118552235Y-88001843D01*
X118347440Y-88138684D01*
X118347440Y-87650000D01*
X118298157Y-87402235D01*
X118157809Y-87192191D01*
X117947765Y-87051843D01*
X117700000Y-87002560D01*
X116800000Y-87002560D01*
X116552235Y-87051843D01*
X116342191Y-87192191D01*
X116276837Y-87290000D01*
X115364802Y-87290000D01*
X113565331Y-85490530D01*
X113528227Y-85435000D01*
X114412560Y-85435000D01*
X114412560Y-85450000D01*
X114461843Y-85697765D01*
X114602191Y-85907809D01*
X114812235Y-86048157D01*
X115060000Y-86097440D01*
X116180000Y-86097440D01*
X116427765Y-86048157D01*
X116495492Y-86002903D01*
X116693691Y-86085000D01*
X117094250Y-86085000D01*
X117253000Y-85926250D01*
X117253000Y-84877000D01*
X117507000Y-84877000D01*
X117507000Y-85926250D01*
X117665750Y-86085000D01*
X118066309Y-86085000D01*
X118299698Y-85988327D01*
X118478327Y-85809699D01*
X118575000Y-85576310D01*
X118575000Y-85035750D01*
X118416250Y-84877000D01*
X117507000Y-84877000D01*
X117253000Y-84877000D01*
X117233000Y-84877000D01*
X117233000Y-84623000D01*
X117253000Y-84623000D01*
X117253000Y-83573750D01*
X117507000Y-83573750D01*
X117507000Y-84623000D01*
X118416250Y-84623000D01*
X118575000Y-84464250D01*
X118575000Y-83923690D01*
X118478327Y-83690301D01*
X118299698Y-83511673D01*
X118066309Y-83415000D01*
X117665750Y-83415000D01*
X117507000Y-83573750D01*
X117253000Y-83573750D01*
X117121480Y-83442230D01*
X117528711Y-83035000D01*
X130465001Y-83035000D01*
X130465000Y-85571289D01*
X130465000Y-85571289D01*
G37*
X130465000Y-85571289D02*
X128821290Y-87215000D01*
X128128979Y-87215000D01*
X128111364Y-87188637D01*
X127739107Y-86939904D01*
X127300001Y-86852560D01*
X127299999Y-86852560D01*
X127275000Y-86857533D01*
X127250000Y-86852560D01*
X126750000Y-86852560D01*
X126625000Y-86877424D01*
X126500000Y-86852560D01*
X125500000Y-86852560D01*
X125375000Y-86877424D01*
X125250000Y-86852560D01*
X124766271Y-86852560D01*
X124035000Y-86121290D01*
X124035000Y-84369126D01*
X123995224Y-84273099D01*
X123974948Y-84171163D01*
X123917207Y-84084747D01*
X123877431Y-83988720D01*
X123803935Y-83915224D01*
X123746193Y-83828807D01*
X123659776Y-83771065D01*
X123586280Y-83697569D01*
X123490253Y-83657793D01*
X123403837Y-83600052D01*
X123301902Y-83579776D01*
X123205874Y-83540000D01*
X123101935Y-83540000D01*
X123000000Y-83519724D01*
X122898066Y-83540000D01*
X122794126Y-83540000D01*
X122698098Y-83579776D01*
X122596164Y-83600052D01*
X122509749Y-83657792D01*
X122413720Y-83697569D01*
X122340222Y-83771067D01*
X122253808Y-83828807D01*
X122196068Y-83915221D01*
X122122569Y-83988720D01*
X122082792Y-84084751D01*
X122025053Y-84171163D01*
X122004778Y-84273094D01*
X121965000Y-84369126D01*
X121965000Y-84780874D01*
X121965001Y-84780876D01*
X121965000Y-85319121D01*
X121965000Y-86448066D01*
X121944724Y-86550000D01*
X121965000Y-86651934D01*
X121965000Y-86655874D01*
X121966508Y-86659514D01*
X122025052Y-86953836D01*
X122253807Y-87296193D01*
X122340227Y-87353937D01*
X123569014Y-88582725D01*
X123639903Y-88939106D01*
X123888636Y-89311363D01*
X124260893Y-89560096D01*
X124699999Y-89647440D01*
X124700001Y-89647440D01*
X124725000Y-89642467D01*
X124750000Y-89647440D01*
X124925000Y-89647440D01*
X124925000Y-90898065D01*
X124904724Y-91000000D01*
X124925001Y-91101939D01*
X124925000Y-93725167D01*
X124781231Y-93821231D01*
X124690000Y-93957768D01*
X124598769Y-93821231D01*
X124057944Y-93459864D01*
X123420000Y-93332969D01*
X122782055Y-93459864D01*
X122241231Y-93821231D01*
X122150000Y-93957768D01*
X122058769Y-93821231D01*
X121517944Y-93459864D01*
X120880000Y-93332969D01*
X120242055Y-93459864D01*
X119701231Y-93821231D01*
X119610000Y-93957768D01*
X119518769Y-93821231D01*
X119017871Y-93486542D01*
X118887929Y-93292071D01*
X118824470Y-93249669D01*
X118690331Y-93115530D01*
X118647929Y-93052071D01*
X118396537Y-92884096D01*
X118174852Y-92840000D01*
X118174847Y-92840000D01*
X118100000Y-92825112D01*
X118025153Y-92840000D01*
X116664802Y-92840000D01*
X116360331Y-92535530D01*
X116317929Y-92472071D01*
X116066537Y-92304096D01*
X115844852Y-92260000D01*
X115844847Y-92260000D01*
X115770000Y-92245112D01*
X115695153Y-92260000D01*
X115010000Y-92260000D01*
X115010000Y-90235750D01*
X116165000Y-90235750D01*
X116165000Y-90476310D01*
X116261673Y-90709699D01*
X116440302Y-90888327D01*
X116673691Y-90985000D01*
X116964250Y-90985000D01*
X117123000Y-90826250D01*
X117123000Y-90077000D01*
X117377000Y-90077000D01*
X117377000Y-90826250D01*
X117535750Y-90985000D01*
X117826309Y-90985000D01*
X118059698Y-90888327D01*
X118238327Y-90709699D01*
X118335000Y-90476310D01*
X118335000Y-90235750D01*
X118176250Y-90077000D01*
X117377000Y-90077000D01*
X117123000Y-90077000D01*
X116323750Y-90077000D01*
X116165000Y-90235750D01*
X115010000Y-90235750D01*
X115010000Y-88816932D01*
X115049999Y-88824888D01*
X115124846Y-88810000D01*
X116276837Y-88810000D01*
X116342191Y-88907809D01*
X116475694Y-88997013D01*
X116440302Y-89011673D01*
X116261673Y-89190301D01*
X116165000Y-89423690D01*
X116165000Y-89664250D01*
X116323750Y-89823000D01*
X117123000Y-89823000D01*
X117123000Y-89803000D01*
X117377000Y-89803000D01*
X117377000Y-89823000D01*
X118176250Y-89823000D01*
X118261781Y-89737469D01*
X118342191Y-89857809D01*
X118552235Y-89998157D01*
X118800000Y-90047440D01*
X119700000Y-90047440D01*
X119947765Y-89998157D01*
X120117115Y-89885000D01*
X121383422Y-89885000D01*
X121722569Y-90224148D01*
X121872569Y-90586280D01*
X122163720Y-90877431D01*
X122544126Y-91035000D01*
X122955874Y-91035000D01*
X123336280Y-90877431D01*
X123627431Y-90586280D01*
X123785000Y-90205874D01*
X123785000Y-89794126D01*
X123627431Y-89413720D01*
X123336280Y-89122569D01*
X122974148Y-88972569D01*
X122437425Y-88435847D01*
X122388049Y-88361951D01*
X122095310Y-88166348D01*
X121837165Y-88115000D01*
X121837161Y-88115000D01*
X121750000Y-88097663D01*
X121662839Y-88115000D01*
X120117115Y-88115000D01*
X119947765Y-88001843D01*
X119700000Y-87952560D01*
X118800000Y-87952560D01*
X118552235Y-88001843D01*
X118347440Y-88138684D01*
X118347440Y-87650000D01*
X118298157Y-87402235D01*
X118157809Y-87192191D01*
X117947765Y-87051843D01*
X117700000Y-87002560D01*
X116800000Y-87002560D01*
X116552235Y-87051843D01*
X116342191Y-87192191D01*
X116276837Y-87290000D01*
X115364802Y-87290000D01*
X113565331Y-85490530D01*
X113528227Y-85435000D01*
X114412560Y-85435000D01*
X114412560Y-85450000D01*
X114461843Y-85697765D01*
X114602191Y-85907809D01*
X114812235Y-86048157D01*
X115060000Y-86097440D01*
X116180000Y-86097440D01*
X116427765Y-86048157D01*
X116495492Y-86002903D01*
X116693691Y-86085000D01*
X117094250Y-86085000D01*
X117253000Y-85926250D01*
X117253000Y-84877000D01*
X117507000Y-84877000D01*
X117507000Y-85926250D01*
X117665750Y-86085000D01*
X118066309Y-86085000D01*
X118299698Y-85988327D01*
X118478327Y-85809699D01*
X118575000Y-85576310D01*
X118575000Y-85035750D01*
X118416250Y-84877000D01*
X117507000Y-84877000D01*
X117253000Y-84877000D01*
X117233000Y-84877000D01*
X117233000Y-84623000D01*
X117253000Y-84623000D01*
X117253000Y-83573750D01*
X117507000Y-83573750D01*
X117507000Y-84623000D01*
X118416250Y-84623000D01*
X118575000Y-84464250D01*
X118575000Y-83923690D01*
X118478327Y-83690301D01*
X118299698Y-83511673D01*
X118066309Y-83415000D01*
X117665750Y-83415000D01*
X117507000Y-83573750D01*
X117253000Y-83573750D01*
X117121480Y-83442230D01*
X117528711Y-83035000D01*
X130465001Y-83035000D01*
X130465000Y-85571289D01*
G36*
X134865000Y-73720132D02*
X134865001Y-76985000D01*
X132991783Y-76985000D01*
X132880000Y-76962765D01*
X132768217Y-76985000D01*
X132437145Y-77050854D01*
X132061711Y-77301711D01*
X131998389Y-77396479D01*
X130776480Y-78618389D01*
X130681712Y-78681711D01*
X130573593Y-78843523D01*
X130430854Y-79057146D01*
X130342765Y-79500000D01*
X130365001Y-79611788D01*
X130365000Y-80965000D01*
X119124869Y-80965000D01*
X119336280Y-80877431D01*
X119627431Y-80586280D01*
X119785000Y-80205874D01*
X119785000Y-79794126D01*
X119627431Y-79413720D01*
X119336280Y-79122569D01*
X118955874Y-78965000D01*
X118544126Y-78965000D01*
X118291344Y-79069706D01*
X118315904Y-79032949D01*
X118325480Y-78984806D01*
X118360000Y-78811263D01*
X118360000Y-78811259D01*
X118374888Y-78736411D01*
X118360000Y-78661563D01*
X118360000Y-77084801D01*
X119253593Y-76191209D01*
X119473744Y-76235000D01*
X119766256Y-76235000D01*
X120199418Y-76148839D01*
X120690625Y-75820625D01*
X121018839Y-75329418D01*
X121134092Y-74750000D01*
X121018839Y-74170582D01*
X120690625Y-73679375D01*
X120199418Y-73351161D01*
X119766256Y-73265000D01*
X119473744Y-73265000D01*
X119040582Y-73351161D01*
X118549375Y-73679375D01*
X118350000Y-73977761D01*
X118150625Y-73679375D01*
X117659418Y-73351161D01*
X117226256Y-73265000D01*
X116933744Y-73265000D01*
X116500582Y-73351161D01*
X116009375Y-73679375D01*
X115810000Y-73977761D01*
X115610625Y-73679375D01*
X115119418Y-73351161D01*
X114686256Y-73265000D01*
X114393744Y-73265000D01*
X113960582Y-73351161D01*
X113469375Y-73679375D01*
X113454904Y-73701033D01*
X113388327Y-73540302D01*
X113209699Y-73361673D01*
X112976310Y-73265000D01*
X112285750Y-73265000D01*
X112127000Y-73423750D01*
X112127000Y-74623000D01*
X112147000Y-74623000D01*
X112147000Y-74877000D01*
X112127000Y-74877000D01*
X112127000Y-76076250D01*
X112285750Y-76235000D01*
X112976310Y-76235000D01*
X113209699Y-76138327D01*
X113388327Y-75959698D01*
X113454904Y-75798967D01*
X113469375Y-75820625D01*
X113780000Y-76028178D01*
X113780000Y-76645198D01*
X113285199Y-77140000D01*
X109174846Y-77140000D01*
X109099999Y-77125112D01*
X109025152Y-77140000D01*
X109025148Y-77140000D01*
X108803463Y-77184096D01*
X108552071Y-77352071D01*
X108509671Y-77415527D01*
X106765528Y-79159671D01*
X106702072Y-79202071D01*
X106659672Y-79265527D01*
X106659671Y-79265528D01*
X106534097Y-79453463D01*
X106475112Y-79750000D01*
X106490001Y-79824852D01*
X106490001Y-81202560D01*
X105177363Y-81202560D01*
X104060331Y-80085530D01*
X104017929Y-80022071D01*
X103766537Y-79854096D01*
X103544852Y-79810000D01*
X103544847Y-79810000D01*
X103470000Y-79795112D01*
X103395153Y-79810000D01*
X98704801Y-79810000D01*
X98700331Y-79805530D01*
X98657929Y-79742071D01*
X98406537Y-79574096D01*
X98184852Y-79530000D01*
X98184847Y-79530000D01*
X98110000Y-79515112D01*
X98035153Y-79530000D01*
X97514801Y-79530000D01*
X97500331Y-79515530D01*
X97457929Y-79452071D01*
X97206537Y-79284096D01*
X96984852Y-79240000D01*
X96984847Y-79240000D01*
X96910000Y-79225112D01*
X96835153Y-79240000D01*
X96203699Y-79240000D01*
X96086268Y-79122569D01*
X95705862Y-78965000D01*
X95294114Y-78965000D01*
X94913708Y-79122569D01*
X94622557Y-79413720D01*
X94464988Y-79794126D01*
X94464988Y-80205874D01*
X94622557Y-80586280D01*
X94913708Y-80877431D01*
X95294114Y-81035000D01*
X95546200Y-81035000D01*
X95665515Y-81323053D01*
X95956666Y-81614204D01*
X96337072Y-81771773D01*
X96492296Y-81771773D01*
X96622569Y-82086280D01*
X96913720Y-82377431D01*
X97294126Y-82535000D01*
X97705874Y-82535000D01*
X98086280Y-82377431D01*
X98203711Y-82260000D01*
X102785199Y-82260000D01*
X103790198Y-83265000D01*
X102837440Y-83265000D01*
X102837440Y-83050000D01*
X102788157Y-82802235D01*
X102647809Y-82592191D01*
X102437765Y-82451843D01*
X102190000Y-82402560D01*
X101070000Y-82402560D01*
X100822235Y-82451843D01*
X100750000Y-82500109D01*
X100677765Y-82451843D01*
X100430000Y-82402560D01*
X99310000Y-82402560D01*
X99062235Y-82451843D01*
X98852191Y-82592191D01*
X98836950Y-82615000D01*
X94075000Y-82615000D01*
X94075000Y-78230131D01*
X96004092Y-76301040D01*
X96823600Y-76301040D01*
X97071365Y-76251757D01*
X97281409Y-76111409D01*
X97421757Y-75901365D01*
X97426932Y-75875349D01*
X97915275Y-76201650D01*
X98352402Y-76288600D01*
X98647598Y-76288600D01*
X99084725Y-76201650D01*
X99580430Y-75870430D01*
X99781854Y-75568979D01*
X99833179Y-75678490D01*
X100265053Y-76072688D01*
X100680974Y-76244958D01*
X100913000Y-76123817D01*
X100913000Y-74917000D01*
X101167000Y-74917000D01*
X101167000Y-76123817D01*
X101399026Y-76244958D01*
X101814947Y-76072688D01*
X102246821Y-75678490D01*
X102494968Y-75149027D01*
X102436140Y-75035750D01*
X110515000Y-75035750D01*
X110515000Y-75726309D01*
X110611673Y-75959698D01*
X110790301Y-76138327D01*
X111023690Y-76235000D01*
X111714250Y-76235000D01*
X111873000Y-76076250D01*
X111873000Y-74877000D01*
X110673750Y-74877000D01*
X110515000Y-75035750D01*
X102436140Y-75035750D01*
X102374469Y-74917000D01*
X101167000Y-74917000D01*
X100913000Y-74917000D01*
X100893000Y-74917000D01*
X100893000Y-74663000D01*
X100913000Y-74663000D01*
X100913000Y-72377000D01*
X101167000Y-72377000D01*
X101167000Y-74663000D01*
X102374469Y-74663000D01*
X102494968Y-74430973D01*
X102246821Y-73901510D01*
X102106786Y-73773691D01*
X110515000Y-73773691D01*
X110515000Y-74464250D01*
X110673750Y-74623000D01*
X111873000Y-74623000D01*
X111873000Y-73423750D01*
X111714250Y-73265000D01*
X111023690Y-73265000D01*
X110790301Y-73361673D01*
X110611673Y-73540302D01*
X110515000Y-73773691D01*
X102106786Y-73773691D01*
X101828848Y-73520000D01*
X102246821Y-73138490D01*
X102494968Y-72609027D01*
X102374469Y-72377000D01*
X101167000Y-72377000D01*
X100913000Y-72377000D01*
X100893000Y-72377000D01*
X100893000Y-72123000D01*
X100913000Y-72123000D01*
X100913000Y-70916183D01*
X101167000Y-70916183D01*
X101167000Y-72123000D01*
X102374469Y-72123000D01*
X102494968Y-71890973D01*
X102246821Y-71361510D01*
X101814947Y-70967312D01*
X101399026Y-70795042D01*
X101167000Y-70916183D01*
X100913000Y-70916183D01*
X100680974Y-70795042D01*
X100265053Y-70967312D01*
X99833179Y-71361510D01*
X99781854Y-71471021D01*
X99580430Y-71169570D01*
X99084725Y-70838350D01*
X98647598Y-70751400D01*
X98352402Y-70751400D01*
X97915275Y-70838350D01*
X97419570Y-71169570D01*
X97230000Y-71453281D01*
X97095000Y-71251240D01*
X97095000Y-70510131D01*
X99220132Y-68385000D01*
X129529869Y-68385000D01*
X134865000Y-73720132D01*
X134865000Y-73720132D01*
G37*
X134865000Y-73720132D02*
X134865001Y-76985000D01*
X132991783Y-76985000D01*
X132880000Y-76962765D01*
X132768217Y-76985000D01*
X132437145Y-77050854D01*
X132061711Y-77301711D01*
X131998389Y-77396479D01*
X130776480Y-78618389D01*
X130681712Y-78681711D01*
X130573593Y-78843523D01*
X130430854Y-79057146D01*
X130342765Y-79500000D01*
X130365001Y-79611788D01*
X130365000Y-80965000D01*
X119124869Y-80965000D01*
X119336280Y-80877431D01*
X119627431Y-80586280D01*
X119785000Y-80205874D01*
X119785000Y-79794126D01*
X119627431Y-79413720D01*
X119336280Y-79122569D01*
X118955874Y-78965000D01*
X118544126Y-78965000D01*
X118291344Y-79069706D01*
X118315904Y-79032949D01*
X118325480Y-78984806D01*
X118360000Y-78811263D01*
X118360000Y-78811259D01*
X118374888Y-78736411D01*
X118360000Y-78661563D01*
X118360000Y-77084801D01*
X119253593Y-76191209D01*
X119473744Y-76235000D01*
X119766256Y-76235000D01*
X120199418Y-76148839D01*
X120690625Y-75820625D01*
X121018839Y-75329418D01*
X121134092Y-74750000D01*
X121018839Y-74170582D01*
X120690625Y-73679375D01*
X120199418Y-73351161D01*
X119766256Y-73265000D01*
X119473744Y-73265000D01*
X119040582Y-73351161D01*
X118549375Y-73679375D01*
X118350000Y-73977761D01*
X118150625Y-73679375D01*
X117659418Y-73351161D01*
X117226256Y-73265000D01*
X116933744Y-73265000D01*
X116500582Y-73351161D01*
X116009375Y-73679375D01*
X115810000Y-73977761D01*
X115610625Y-73679375D01*
X115119418Y-73351161D01*
X114686256Y-73265000D01*
X114393744Y-73265000D01*
X113960582Y-73351161D01*
X113469375Y-73679375D01*
X113454904Y-73701033D01*
X113388327Y-73540302D01*
X113209699Y-73361673D01*
X112976310Y-73265000D01*
X112285750Y-73265000D01*
X112127000Y-73423750D01*
X112127000Y-74623000D01*
X112147000Y-74623000D01*
X112147000Y-74877000D01*
X112127000Y-74877000D01*
X112127000Y-76076250D01*
X112285750Y-76235000D01*
X112976310Y-76235000D01*
X113209699Y-76138327D01*
X113388327Y-75959698D01*
X113454904Y-75798967D01*
X113469375Y-75820625D01*
X113780000Y-76028178D01*
X113780000Y-76645198D01*
X113285199Y-77140000D01*
X109174846Y-77140000D01*
X109099999Y-77125112D01*
X109025152Y-77140000D01*
X109025148Y-77140000D01*
X108803463Y-77184096D01*
X108552071Y-77352071D01*
X108509671Y-77415527D01*
X106765528Y-79159671D01*
X106702072Y-79202071D01*
X106659672Y-79265527D01*
X106659671Y-79265528D01*
X106534097Y-79453463D01*
X106475112Y-79750000D01*
X106490001Y-79824852D01*
X106490001Y-81202560D01*
X105177363Y-81202560D01*
X104060331Y-80085530D01*
X104017929Y-80022071D01*
X103766537Y-79854096D01*
X103544852Y-79810000D01*
X103544847Y-79810000D01*
X103470000Y-79795112D01*
X103395153Y-79810000D01*
X98704801Y-79810000D01*
X98700331Y-79805530D01*
X98657929Y-79742071D01*
X98406537Y-79574096D01*
X98184852Y-79530000D01*
X98184847Y-79530000D01*
X98110000Y-79515112D01*
X98035153Y-79530000D01*
X97514801Y-79530000D01*
X97500331Y-79515530D01*
X97457929Y-79452071D01*
X97206537Y-79284096D01*
X96984852Y-79240000D01*
X96984847Y-79240000D01*
X96910000Y-79225112D01*
X96835153Y-79240000D01*
X96203699Y-79240000D01*
X96086268Y-79122569D01*
X95705862Y-78965000D01*
X95294114Y-78965000D01*
X94913708Y-79122569D01*
X94622557Y-79413720D01*
X94464988Y-79794126D01*
X94464988Y-80205874D01*
X94622557Y-80586280D01*
X94913708Y-80877431D01*
X95294114Y-81035000D01*
X95546200Y-81035000D01*
X95665515Y-81323053D01*
X95956666Y-81614204D01*
X96337072Y-81771773D01*
X96492296Y-81771773D01*
X96622569Y-82086280D01*
X96913720Y-82377431D01*
X97294126Y-82535000D01*
X97705874Y-82535000D01*
X98086280Y-82377431D01*
X98203711Y-82260000D01*
X102785199Y-82260000D01*
X103790198Y-83265000D01*
X102837440Y-83265000D01*
X102837440Y-83050000D01*
X102788157Y-82802235D01*
X102647809Y-82592191D01*
X102437765Y-82451843D01*
X102190000Y-82402560D01*
X101070000Y-82402560D01*
X100822235Y-82451843D01*
X100750000Y-82500109D01*
X100677765Y-82451843D01*
X100430000Y-82402560D01*
X99310000Y-82402560D01*
X99062235Y-82451843D01*
X98852191Y-82592191D01*
X98836950Y-82615000D01*
X94075000Y-82615000D01*
X94075000Y-78230131D01*
X96004092Y-76301040D01*
X96823600Y-76301040D01*
X97071365Y-76251757D01*
X97281409Y-76111409D01*
X97421757Y-75901365D01*
X97426932Y-75875349D01*
X97915275Y-76201650D01*
X98352402Y-76288600D01*
X98647598Y-76288600D01*
X99084725Y-76201650D01*
X99580430Y-75870430D01*
X99781854Y-75568979D01*
X99833179Y-75678490D01*
X100265053Y-76072688D01*
X100680974Y-76244958D01*
X100913000Y-76123817D01*
X100913000Y-74917000D01*
X101167000Y-74917000D01*
X101167000Y-76123817D01*
X101399026Y-76244958D01*
X101814947Y-76072688D01*
X102246821Y-75678490D01*
X102494968Y-75149027D01*
X102436140Y-75035750D01*
X110515000Y-75035750D01*
X110515000Y-75726309D01*
X110611673Y-75959698D01*
X110790301Y-76138327D01*
X111023690Y-76235000D01*
X111714250Y-76235000D01*
X111873000Y-76076250D01*
X111873000Y-74877000D01*
X110673750Y-74877000D01*
X110515000Y-75035750D01*
X102436140Y-75035750D01*
X102374469Y-74917000D01*
X101167000Y-74917000D01*
X100913000Y-74917000D01*
X100893000Y-74917000D01*
X100893000Y-74663000D01*
X100913000Y-74663000D01*
X100913000Y-72377000D01*
X101167000Y-72377000D01*
X101167000Y-74663000D01*
X102374469Y-74663000D01*
X102494968Y-74430973D01*
X102246821Y-73901510D01*
X102106786Y-73773691D01*
X110515000Y-73773691D01*
X110515000Y-74464250D01*
X110673750Y-74623000D01*
X111873000Y-74623000D01*
X111873000Y-73423750D01*
X111714250Y-73265000D01*
X111023690Y-73265000D01*
X110790301Y-73361673D01*
X110611673Y-73540302D01*
X110515000Y-73773691D01*
X102106786Y-73773691D01*
X101828848Y-73520000D01*
X102246821Y-73138490D01*
X102494968Y-72609027D01*
X102374469Y-72377000D01*
X101167000Y-72377000D01*
X100913000Y-72377000D01*
X100893000Y-72377000D01*
X100893000Y-72123000D01*
X100913000Y-72123000D01*
X100913000Y-70916183D01*
X101167000Y-70916183D01*
X101167000Y-72123000D01*
X102374469Y-72123000D01*
X102494968Y-71890973D01*
X102246821Y-71361510D01*
X101814947Y-70967312D01*
X101399026Y-70795042D01*
X101167000Y-70916183D01*
X100913000Y-70916183D01*
X100680974Y-70795042D01*
X100265053Y-70967312D01*
X99833179Y-71361510D01*
X99781854Y-71471021D01*
X99580430Y-71169570D01*
X99084725Y-70838350D01*
X98647598Y-70751400D01*
X98352402Y-70751400D01*
X97915275Y-70838350D01*
X97419570Y-71169570D01*
X97230000Y-71453281D01*
X97095000Y-71251240D01*
X97095000Y-70510131D01*
X99220132Y-68385000D01*
X129529869Y-68385000D01*
X134865000Y-73720132D01*
M02*
